<svg width="1920" height="1440" viewBox="0 0 1920 1440" fill="none" xmlns="http://www.w3.org/2000/svg">
<g clip-path="url(#clip0_12_12)">
<rect width="1920" height="1440" fill="#0C0E12"/>
<mask id="mask0_12_12" style="mask-type:alpha" maskUnits="userSpaceOnUse" x="0" y="0" width="1920" height="1440">
<rect width="1440" height="1440" transform="translate(240)" fill="url(#paint0_radial_12_12)"/>
</mask>
<g mask="url(#mask0_12_12)">
<g clip-path="url(#clip1_12_12)">
<mask id="path-3-inside-1_12_12" fill="white">
<path d="M0 0H96V96H0V0Z"/>
</mask>
<path d="M96 96V97H97V96H96ZM96 0H95V96H96H97V0H96ZM96 96V95H0V96V97H96V96Z" fill="#272932" mask="url(#path-3-inside-1_12_12)"/>
<mask id="path-5-inside-2_12_12" fill="white">
<path d="M96 0H192V96H96V0Z"/>
</mask>
<path d="M192 96V97H193V96H192ZM192 0H191V96H192H193V0H192ZM192 96V95H96V96V97H192V96Z" fill="#272932" mask="url(#path-5-inside-2_12_12)"/>
<mask id="path-7-inside-3_12_12" fill="white">
<path d="M192 0H288V96H192V0Z"/>
</mask>
<path d="M288 96V97H289V96H288ZM288 0H287V96H288H289V0H288ZM288 96V95H192V96V97H288V96Z" fill="#272932" mask="url(#path-7-inside-3_12_12)"/>
<mask id="path-9-inside-4_12_12" fill="white">
<path d="M288 0H384V96H288V0Z"/>
</mask>
<path d="M384 96V97H385V96H384ZM384 0H383V96H384H385V0H384ZM384 96V95H288V96V97H384V96Z" fill="#272932" mask="url(#path-9-inside-4_12_12)"/>
<mask id="path-11-inside-5_12_12" fill="white">
<path d="M384 0H480V96H384V0Z"/>
</mask>
<path d="M480 96V97H481V96H480ZM480 0H479V96H480H481V0H480ZM480 96V95H384V96V97H480V96Z" fill="#272932" mask="url(#path-11-inside-5_12_12)"/>
<mask id="path-13-inside-6_12_12" fill="white">
<path d="M480 0H576V96H480V0Z"/>
</mask>
<path d="M576 96V97H577V96H576ZM576 0H575V96H576H577V0H576ZM576 96V95H480V96V97H576V96Z" fill="#272932" mask="url(#path-13-inside-6_12_12)"/>
<mask id="path-15-inside-7_12_12" fill="white">
<path d="M576 0H672V96H576V0Z"/>
</mask>
<path d="M672 96V97H673V96H672ZM672 0H671V96H672H673V0H672ZM672 96V95H576V96V97H672V96Z" fill="#272932" mask="url(#path-15-inside-7_12_12)"/>
<mask id="path-17-inside-8_12_12" fill="white">
<path d="M672 0H768V96H672V0Z"/>
</mask>
<path d="M768 96V97H769V96H768ZM768 0H767V96H768H769V0H768ZM768 96V95H672V96V97H768V96Z" fill="#272932" mask="url(#path-17-inside-8_12_12)"/>
<mask id="path-19-inside-9_12_12" fill="white">
<path d="M768 0H864V96H768V0Z"/>
</mask>
<path d="M864 96V97H865V96H864ZM864 0H863V96H864H865V0H864ZM864 96V95H768V96V97H864V96Z" fill="#272932" mask="url(#path-19-inside-9_12_12)"/>
<mask id="path-21-inside-10_12_12" fill="white">
<path d="M864 0H960V96H864V0Z"/>
</mask>
<path d="M960 96V97H961V96H960ZM960 0H959V96H960H961V0H960ZM960 96V95H864V96V97H960V96Z" fill="#272932" mask="url(#path-21-inside-10_12_12)"/>
<mask id="path-23-inside-11_12_12" fill="white">
<path d="M960 0H1056V96H960V0Z"/>
</mask>
<path d="M1056 96V97H1057V96H1056ZM1056 0H1055V96H1056H1057V0H1056ZM1056 96V95H960V96V97H1056V96Z" fill="#272932" mask="url(#path-23-inside-11_12_12)"/>
<mask id="path-25-inside-12_12_12" fill="white">
<path d="M1056 0H1152V96H1056V0Z"/>
</mask>
<path d="M1152 96V97H1153V96H1152ZM1152 0H1151V96H1152H1153V0H1152ZM1152 96V95H1056V96V97H1152V96Z" fill="#272932" mask="url(#path-25-inside-12_12_12)"/>
<mask id="path-27-inside-13_12_12" fill="white">
<path d="M1152 0H1248V96H1152V0Z"/>
</mask>
<path d="M1248 96V97H1249V96H1248ZM1248 0H1247V96H1248H1249V0H1248ZM1248 96V95H1152V96V97H1248V96Z" fill="#272932" mask="url(#path-27-inside-13_12_12)"/>
<mask id="path-29-inside-14_12_12" fill="white">
<path d="M1248 0H1344V96H1248V0Z"/>
</mask>
<path d="M1344 96V97H1345V96H1344ZM1344 0H1343V96H1344H1345V0H1344ZM1344 96V95H1248V96V97H1344V96Z" fill="#272932" mask="url(#path-29-inside-14_12_12)"/>
<mask id="path-31-inside-15_12_12" fill="white">
<path d="M1344 0H1440V96H1344V0Z"/>
</mask>
<path d="M1440 96V97H1441V96H1440ZM1440 0H1439V96H1440H1441V0H1440ZM1440 96V95H1344V96V97H1440V96Z" fill="#272932" mask="url(#path-31-inside-15_12_12)"/>
<mask id="path-33-inside-16_12_12" fill="white">
<path d="M1440 0H1536V96H1440V0Z"/>
</mask>
<path d="M1536 96V97H1537V96H1536ZM1536 0H1535V96H1536H1537V0H1536ZM1536 96V95H1440V96V97H1536V96Z" fill="#272932" mask="url(#path-33-inside-16_12_12)"/>
<mask id="path-35-inside-17_12_12" fill="white">
<path d="M1536 0H1632V96H1536V0Z"/>
</mask>
<path d="M1632 96V97H1633V96H1632ZM1632 0H1631V96H1632H1633V0H1632ZM1632 96V95H1536V96V97H1632V96Z" fill="#272932" mask="url(#path-35-inside-17_12_12)"/>
<mask id="path-37-inside-18_12_12" fill="white">
<path d="M1632 0H1728V96H1632V0Z"/>
</mask>
<path d="M1728 96V97H1729V96H1728ZM1728 0H1727V96H1728H1729V0H1728ZM1728 96V95H1632V96V97H1728V96Z" fill="#272932" mask="url(#path-37-inside-18_12_12)"/>
<mask id="path-39-inside-19_12_12" fill="white">
<path d="M1728 0H1824V96H1728V0Z"/>
</mask>
<path d="M1824 96V97H1825V96H1824ZM1824 0H1823V96H1824H1825V0H1824ZM1824 96V95H1728V96V97H1824V96Z" fill="#272932" mask="url(#path-39-inside-19_12_12)"/>
<mask id="path-41-inside-20_12_12" fill="white">
<path d="M1824 0H1920V96H1824V0Z"/>
</mask>
<path d="M1920 96V97H1921V96H1920ZM1920 0H1919V96H1920H1921V0H1920ZM1920 96V95H1824V96V97H1920V96Z" fill="#272932" mask="url(#path-41-inside-20_12_12)"/>
<mask id="path-43-inside-21_12_12" fill="white">
<path d="M0 96H96V192H0V96Z"/>
</mask>
<path d="M96 192V193H97V192H96ZM96 96H95V192H96H97V96H96ZM96 192V191H0V192V193H96V192Z" fill="#272932" mask="url(#path-43-inside-21_12_12)"/>
<mask id="path-45-inside-22_12_12" fill="white">
<path d="M96 96H192V192H96V96Z"/>
</mask>
<path d="M192 192V193H193V192H192ZM192 96H191V192H192H193V96H192ZM192 192V191H96V192V193H192V192Z" fill="#272932" mask="url(#path-45-inside-22_12_12)"/>
<mask id="path-47-inside-23_12_12" fill="white">
<path d="M192 96H288V192H192V96Z"/>
</mask>
<path d="M288 192V193H289V192H288ZM288 96H287V192H288H289V96H288ZM288 192V191H192V192V193H288V192Z" fill="#272932" mask="url(#path-47-inside-23_12_12)"/>
<mask id="path-49-inside-24_12_12" fill="white">
<path d="M288 96H384V192H288V96Z"/>
</mask>
<path d="M384 192V193H385V192H384ZM384 96H383V192H384H385V96H384ZM384 192V191H288V192V193H384V192Z" fill="#272932" mask="url(#path-49-inside-24_12_12)"/>
<mask id="path-51-inside-25_12_12" fill="white">
<path d="M384 96H480V192H384V96Z"/>
</mask>
<path d="M480 192V193H481V192H480ZM480 96H479V192H480H481V96H480ZM480 192V191H384V192V193H480V192Z" fill="#272932" mask="url(#path-51-inside-25_12_12)"/>
<mask id="path-53-inside-26_12_12" fill="white">
<path d="M480 96H576V192H480V96Z"/>
</mask>
<path d="M480 96H576V192H480V96Z" fill="#1A1D22"/>
<path d="M576 192V193H577V192H576ZM576 96H575V192H576H577V96H576ZM576 192V191H480V192V193H576V192Z" fill="#272932" mask="url(#path-53-inside-26_12_12)"/>
<mask id="path-55-inside-27_12_12" fill="white">
<path d="M576 96H672V192H576V96Z"/>
</mask>
<path d="M672 192V193H673V192H672ZM672 96H671V192H672H673V96H672ZM672 192V191H576V192V193H672V192Z" fill="#272932" mask="url(#path-55-inside-27_12_12)"/>
<mask id="path-57-inside-28_12_12" fill="white">
<path d="M672 96H768V192H672V96Z"/>
</mask>
<path d="M768 192V193H769V192H768ZM768 96H767V192H768H769V96H768ZM768 192V191H672V192V193H768V192Z" fill="#272932" mask="url(#path-57-inside-28_12_12)"/>
<mask id="path-59-inside-29_12_12" fill="white">
<path d="M768 96H864V192H768V96Z"/>
</mask>
<path d="M864 192V193H865V192H864ZM864 96H863V192H864H865V96H864ZM864 192V191H768V192V193H864V192Z" fill="#272932" mask="url(#path-59-inside-29_12_12)"/>
<mask id="path-61-inside-30_12_12" fill="white">
<path d="M864 96H960V192H864V96Z"/>
</mask>
<path d="M960 192V193H961V192H960ZM960 96H959V192H960H961V96H960ZM960 192V191H864V192V193H960V192Z" fill="#272932" mask="url(#path-61-inside-30_12_12)"/>
<mask id="path-63-inside-31_12_12" fill="white">
<path d="M960 96H1056V192H960V96Z"/>
</mask>
<path d="M1056 192V193H1057V192H1056ZM1056 96H1055V192H1056H1057V96H1056ZM1056 192V191H960V192V193H1056V192Z" fill="#272932" mask="url(#path-63-inside-31_12_12)"/>
<mask id="path-65-inside-32_12_12" fill="white">
<path d="M1056 96H1152V192H1056V96Z"/>
</mask>
<path d="M1152 192V193H1153V192H1152ZM1152 96H1151V192H1152H1153V96H1152ZM1152 192V191H1056V192V193H1152V192Z" fill="#272932" mask="url(#path-65-inside-32_12_12)"/>
<mask id="path-67-inside-33_12_12" fill="white">
<path d="M1152 96H1248V192H1152V96Z"/>
</mask>
<path d="M1248 192V193H1249V192H1248ZM1248 96H1247V192H1248H1249V96H1248ZM1248 192V191H1152V192V193H1248V192Z" fill="#272932" mask="url(#path-67-inside-33_12_12)"/>
<mask id="path-69-inside-34_12_12" fill="white">
<path d="M1248 96H1344V192H1248V96Z"/>
</mask>
<path d="M1344 192V193H1345V192H1344ZM1344 96H1343V192H1344H1345V96H1344ZM1344 192V191H1248V192V193H1344V192Z" fill="#272932" mask="url(#path-69-inside-34_12_12)"/>
<mask id="path-71-inside-35_12_12" fill="white">
<path d="M1344 96H1440V192H1344V96Z"/>
</mask>
<path d="M1344 96H1440V192H1344V96Z" fill="#1A1D22"/>
<path d="M1440 192V193H1441V192H1440ZM1440 96H1439V192H1440H1441V96H1440ZM1440 192V191H1344V192V193H1440V192Z" fill="#272932" mask="url(#path-71-inside-35_12_12)"/>
<mask id="path-73-inside-36_12_12" fill="white">
<path d="M1440 96H1536V192H1440V96Z"/>
</mask>
<path d="M1536 192V193H1537V192H1536ZM1536 96H1535V192H1536H1537V96H1536ZM1536 192V191H1440V192V193H1536V192Z" fill="#272932" mask="url(#path-73-inside-36_12_12)"/>
<mask id="path-75-inside-37_12_12" fill="white">
<path d="M1536 96H1632V192H1536V96Z"/>
</mask>
<path d="M1632 192V193H1633V192H1632ZM1632 96H1631V192H1632H1633V96H1632ZM1632 192V191H1536V192V193H1632V192Z" fill="#272932" mask="url(#path-75-inside-37_12_12)"/>
<mask id="path-77-inside-38_12_12" fill="white">
<path d="M1632 96H1728V192H1632V96Z"/>
</mask>
<path d="M1728 192V193H1729V192H1728ZM1728 96H1727V192H1728H1729V96H1728ZM1728 192V191H1632V192V193H1728V192Z" fill="#272932" mask="url(#path-77-inside-38_12_12)"/>
<mask id="path-79-inside-39_12_12" fill="white">
<path d="M1728 96H1824V192H1728V96Z"/>
</mask>
<path d="M1824 192V193H1825V192H1824ZM1824 96H1823V192H1824H1825V96H1824ZM1824 192V191H1728V192V193H1824V192Z" fill="#272932" mask="url(#path-79-inside-39_12_12)"/>
<mask id="path-81-inside-40_12_12" fill="white">
<path d="M1824 96H1920V192H1824V96Z"/>
</mask>
<path d="M1920 192V193H1921V192H1920ZM1920 96H1919V192H1920H1921V96H1920ZM1920 192V191H1824V192V193H1920V192Z" fill="#272932" mask="url(#path-81-inside-40_12_12)"/>
<mask id="path-83-inside-41_12_12" fill="white">
<path d="M0 192H96V288H0V192Z"/>
</mask>
<path d="M96 288V289H97V288H96ZM96 192H95V288H96H97V192H96ZM96 288V287H0V288V289H96V288Z" fill="#272932" mask="url(#path-83-inside-41_12_12)"/>
<mask id="path-85-inside-42_12_12" fill="white">
<path d="M96 192H192V288H96V192Z"/>
</mask>
<path d="M192 288V289H193V288H192ZM192 192H191V288H192H193V192H192ZM192 288V287H96V288V289H192V288Z" fill="#272932" mask="url(#path-85-inside-42_12_12)"/>
<mask id="path-87-inside-43_12_12" fill="white">
<path d="M192 192H288V288H192V192Z"/>
</mask>
<path d="M288 288V289H289V288H288ZM288 192H287V288H288H289V192H288ZM288 288V287H192V288V289H288V288Z" fill="#272932" mask="url(#path-87-inside-43_12_12)"/>
<mask id="path-89-inside-44_12_12" fill="white">
<path d="M288 192H384V288H288V192Z"/>
</mask>
<path d="M384 288V289H385V288H384ZM384 192H383V288H384H385V192H384ZM384 288V287H288V288V289H384V288Z" fill="#272932" mask="url(#path-89-inside-44_12_12)"/>
<mask id="path-91-inside-45_12_12" fill="white">
<path d="M384 192H480V288H384V192Z"/>
</mask>
<path d="M480 288V289H481V288H480ZM480 192H479V288H480H481V192H480ZM480 288V287H384V288V289H480V288Z" fill="#272932" mask="url(#path-91-inside-45_12_12)"/>
<mask id="path-93-inside-46_12_12" fill="white">
<path d="M480 192H576V288H480V192Z"/>
</mask>
<path d="M576 288V289H577V288H576ZM576 192H575V288H576H577V192H576ZM576 288V287H480V288V289H576V288Z" fill="#272932" mask="url(#path-93-inside-46_12_12)"/>
<mask id="path-95-inside-47_12_12" fill="white">
<path d="M576 192H672V288H576V192Z"/>
</mask>
<path d="M672 288V289H673V288H672ZM672 192H671V288H672H673V192H672ZM672 288V287H576V288V289H672V288Z" fill="#272932" mask="url(#path-95-inside-47_12_12)"/>
<mask id="path-97-inside-48_12_12" fill="white">
<path d="M672 192H768V288H672V192Z"/>
</mask>
<path d="M672 192H768V288H672V192Z" fill="#1A1D22"/>
<path d="M768 288V289H769V288H768ZM768 192H767V288H768H769V192H768ZM768 288V287H672V288V289H768V288Z" fill="#272932" mask="url(#path-97-inside-48_12_12)"/>
<mask id="path-99-inside-49_12_12" fill="white">
<path d="M768 192H864V288H768V192Z"/>
</mask>
<path d="M864 288V289H865V288H864ZM864 192H863V288H864H865V192H864ZM864 288V287H768V288V289H864V288Z" fill="#272932" mask="url(#path-99-inside-49_12_12)"/>
<mask id="path-101-inside-50_12_12" fill="white">
<path d="M864 192H960V288H864V192Z"/>
</mask>
<path d="M960 288V289H961V288H960ZM960 192H959V288H960H961V192H960ZM960 288V287H864V288V289H960V288Z" fill="#272932" mask="url(#path-101-inside-50_12_12)"/>
<mask id="path-103-inside-51_12_12" fill="white">
<path d="M960 192H1056V288H960V192Z"/>
</mask>
<path d="M1056 288V289H1057V288H1056ZM1056 192H1055V288H1056H1057V192H1056ZM1056 288V287H960V288V289H1056V288Z" fill="#272932" mask="url(#path-103-inside-51_12_12)"/>
<mask id="path-105-inside-52_12_12" fill="white">
<path d="M1056 192H1152V288H1056V192Z"/>
</mask>
<path d="M1056 192H1152V288H1056V192Z" fill="#1A1D22"/>
<path d="M1152 288V289H1153V288H1152ZM1152 192H1151V288H1152H1153V192H1152ZM1152 288V287H1056V288V289H1152V288Z" fill="#272932" mask="url(#path-105-inside-52_12_12)"/>
<mask id="path-107-inside-53_12_12" fill="white">
<path d="M1152 192H1248V288H1152V192Z"/>
</mask>
<path d="M1248 288V289H1249V288H1248ZM1248 192H1247V288H1248H1249V192H1248ZM1248 288V287H1152V288V289H1248V288Z" fill="#272932" mask="url(#path-107-inside-53_12_12)"/>
<mask id="path-109-inside-54_12_12" fill="white">
<path d="M1248 192H1344V288H1248V192Z"/>
</mask>
<path d="M1344 288V289H1345V288H1344ZM1344 192H1343V288H1344H1345V192H1344ZM1344 288V287H1248V288V289H1344V288Z" fill="#272932" mask="url(#path-109-inside-54_12_12)"/>
<mask id="path-111-inside-55_12_12" fill="white">
<path d="M1344 192H1440V288H1344V192Z"/>
</mask>
<path d="M1440 288V289H1441V288H1440ZM1440 192H1439V288H1440H1441V192H1440ZM1440 288V287H1344V288V289H1440V288Z" fill="#272932" mask="url(#path-111-inside-55_12_12)"/>
<mask id="path-113-inside-56_12_12" fill="white">
<path d="M1440 192H1536V288H1440V192Z"/>
</mask>
<path d="M1536 288V289H1537V288H1536ZM1536 192H1535V288H1536H1537V192H1536ZM1536 288V287H1440V288V289H1536V288Z" fill="#272932" mask="url(#path-113-inside-56_12_12)"/>
<mask id="path-115-inside-57_12_12" fill="white">
<path d="M1536 192H1632V288H1536V192Z"/>
</mask>
<path d="M1632 288V289H1633V288H1632ZM1632 192H1631V288H1632H1633V192H1632ZM1632 288V287H1536V288V289H1632V288Z" fill="#272932" mask="url(#path-115-inside-57_12_12)"/>
<mask id="path-117-inside-58_12_12" fill="white">
<path d="M1632 192H1728V288H1632V192Z"/>
</mask>
<path d="M1728 288V289H1729V288H1728ZM1728 192H1727V288H1728H1729V192H1728ZM1728 288V287H1632V288V289H1728V288Z" fill="#272932" mask="url(#path-117-inside-58_12_12)"/>
<mask id="path-119-inside-59_12_12" fill="white">
<path d="M1728 192H1824V288H1728V192Z"/>
</mask>
<path d="M1824 288V289H1825V288H1824ZM1824 192H1823V288H1824H1825V192H1824ZM1824 288V287H1728V288V289H1824V288Z" fill="#272932" mask="url(#path-119-inside-59_12_12)"/>
<mask id="path-121-inside-60_12_12" fill="white">
<path d="M1824 192H1920V288H1824V192Z"/>
</mask>
<path d="M1920 288V289H1921V288H1920ZM1920 192H1919V288H1920H1921V192H1920ZM1920 288V287H1824V288V289H1920V288Z" fill="#272932" mask="url(#path-121-inside-60_12_12)"/>
<mask id="path-123-inside-61_12_12" fill="white">
<path d="M0 288H96V384H0V288Z"/>
</mask>
<path d="M96 384V385H97V384H96ZM96 288H95V384H96H97V288H96ZM96 384V383H0V384V385H96V384Z" fill="#272932" mask="url(#path-123-inside-61_12_12)"/>
<mask id="path-125-inside-62_12_12" fill="white">
<path d="M96 288H192V384H96V288Z"/>
</mask>
<path d="M192 384V385H193V384H192ZM192 288H191V384H192H193V288H192ZM192 384V383H96V384V385H192V384Z" fill="#272932" mask="url(#path-125-inside-62_12_12)"/>
<mask id="path-127-inside-63_12_12" fill="white">
<path d="M192 288H288V384H192V288Z"/>
</mask>
<path d="M192 288H288V384H192V288Z" fill="#1A1D22"/>
<path d="M288 384V385H289V384H288ZM288 288H287V384H288H289V288H288ZM288 384V383H192V384V385H288V384Z" fill="#272932" mask="url(#path-127-inside-63_12_12)"/>
<mask id="path-129-inside-64_12_12" fill="white">
<path d="M288 288H384V384H288V288Z"/>
</mask>
<path d="M384 384V385H385V384H384ZM384 288H383V384H384H385V288H384ZM384 384V383H288V384V385H384V384Z" fill="#272932" mask="url(#path-129-inside-64_12_12)"/>
<mask id="path-131-inside-65_12_12" fill="white">
<path d="M384 288H480V384H384V288Z"/>
</mask>
<path d="M480 384V385H481V384H480ZM480 288H479V384H480H481V288H480ZM480 384V383H384V384V385H480V384Z" fill="#272932" mask="url(#path-131-inside-65_12_12)"/>
<mask id="path-133-inside-66_12_12" fill="white">
<path d="M480 288H576V384H480V288Z"/>
</mask>
<path d="M576 384V385H577V384H576ZM576 288H575V384H576H577V288H576ZM576 384V383H480V384V385H576V384Z" fill="#272932" mask="url(#path-133-inside-66_12_12)"/>
<mask id="path-135-inside-67_12_12" fill="white">
<path d="M576 288H672V384H576V288Z"/>
</mask>
<path d="M672 384V385H673V384H672ZM672 288H671V384H672H673V288H672ZM672 384V383H576V384V385H672V384Z" fill="#272932" mask="url(#path-135-inside-67_12_12)"/>
<mask id="path-137-inside-68_12_12" fill="white">
<path d="M672 288H768V384H672V288Z"/>
</mask>
<path d="M768 384V385H769V384H768ZM768 288H767V384H768H769V288H768ZM768 384V383H672V384V385H768V384Z" fill="#272932" mask="url(#path-137-inside-68_12_12)"/>
<mask id="path-139-inside-69_12_12" fill="white">
<path d="M768 288H864V384H768V288Z"/>
</mask>
<path d="M864 384V385H865V384H864ZM864 288H863V384H864H865V288H864ZM864 384V383H768V384V385H864V384Z" fill="#272932" mask="url(#path-139-inside-69_12_12)"/>
<mask id="path-141-inside-70_12_12" fill="white">
<path d="M864 288H960V384H864V288Z"/>
</mask>
<path d="M960 384V385H961V384H960ZM960 288H959V384H960H961V288H960ZM960 384V383H864V384V385H960V384Z" fill="#272932" mask="url(#path-141-inside-70_12_12)"/>
<mask id="path-143-inside-71_12_12" fill="white">
<path d="M960 288H1056V384H960V288Z"/>
</mask>
<path d="M1056 384V385H1057V384H1056ZM1056 288H1055V384H1056H1057V288H1056ZM1056 384V383H960V384V385H1056V384Z" fill="#272932" mask="url(#path-143-inside-71_12_12)"/>
<mask id="path-145-inside-72_12_12" fill="white">
<path d="M1056 288H1152V384H1056V288Z"/>
</mask>
<path d="M1152 384V385H1153V384H1152ZM1152 288H1151V384H1152H1153V288H1152ZM1152 384V383H1056V384V385H1152V384Z" fill="#272932" mask="url(#path-145-inside-72_12_12)"/>
<mask id="path-147-inside-73_12_12" fill="white">
<path d="M1152 288H1248V384H1152V288Z"/>
</mask>
<path d="M1248 384V385H1249V384H1248ZM1248 288H1247V384H1248H1249V288H1248ZM1248 384V383H1152V384V385H1248V384Z" fill="#272932" mask="url(#path-147-inside-73_12_12)"/>
<mask id="path-149-inside-74_12_12" fill="white">
<path d="M1248 288H1344V384H1248V288Z"/>
</mask>
<path d="M1344 384V385H1345V384H1344ZM1344 288H1343V384H1344H1345V288H1344ZM1344 384V383H1248V384V385H1344V384Z" fill="#272932" mask="url(#path-149-inside-74_12_12)"/>
<mask id="path-151-inside-75_12_12" fill="white">
<path d="M1344 288H1440V384H1344V288Z"/>
</mask>
<path d="M1344 288H1440V384H1344V288Z" fill="#1A1D22"/>
<path d="M1440 384V385H1441V384H1440ZM1440 288H1439V384H1440H1441V288H1440ZM1440 384V383H1344V384V385H1440V384Z" fill="#272932" mask="url(#path-151-inside-75_12_12)"/>
<mask id="path-153-inside-76_12_12" fill="white">
<path d="M1440 288H1536V384H1440V288Z"/>
</mask>
<path d="M1536 384V385H1537V384H1536ZM1536 288H1535V384H1536H1537V288H1536ZM1536 384V383H1440V384V385H1536V384Z" fill="#272932" mask="url(#path-153-inside-76_12_12)"/>
<mask id="path-155-inside-77_12_12" fill="white">
<path d="M1536 288H1632V384H1536V288Z"/>
</mask>
<path d="M1632 384V385H1633V384H1632ZM1632 288H1631V384H1632H1633V288H1632ZM1632 384V383H1536V384V385H1632V384Z" fill="#272932" mask="url(#path-155-inside-77_12_12)"/>
<mask id="path-157-inside-78_12_12" fill="white">
<path d="M1632 288H1728V384H1632V288Z"/>
</mask>
<path d="M1728 384V385H1729V384H1728ZM1728 288H1727V384H1728H1729V288H1728ZM1728 384V383H1632V384V385H1728V384Z" fill="#272932" mask="url(#path-157-inside-78_12_12)"/>
<mask id="path-159-inside-79_12_12" fill="white">
<path d="M1728 288H1824V384H1728V288Z"/>
</mask>
<path d="M1824 384V385H1825V384H1824ZM1824 288H1823V384H1824H1825V288H1824ZM1824 384V383H1728V384V385H1824V384Z" fill="#272932" mask="url(#path-159-inside-79_12_12)"/>
<mask id="path-161-inside-80_12_12" fill="white">
<path d="M1824 288H1920V384H1824V288Z"/>
</mask>
<path d="M1920 384V385H1921V384H1920ZM1920 288H1919V384H1920H1921V288H1920ZM1920 384V383H1824V384V385H1920V384Z" fill="#272932" mask="url(#path-161-inside-80_12_12)"/>
<mask id="path-163-inside-81_12_12" fill="white">
<path d="M0 384H96V480H0V384Z"/>
</mask>
<path d="M96 480V481H97V480H96ZM96 384H95V480H96H97V384H96ZM96 480V479H0V480V481H96V480Z" fill="#272932" mask="url(#path-163-inside-81_12_12)"/>
<mask id="path-165-inside-82_12_12" fill="white">
<path d="M96 384H192V480H96V384Z"/>
</mask>
<path d="M192 480V481H193V480H192ZM192 384H191V480H192H193V384H192ZM192 480V479H96V480V481H192V480Z" fill="#272932" mask="url(#path-165-inside-82_12_12)"/>
<mask id="path-167-inside-83_12_12" fill="white">
<path d="M192 384H288V480H192V384Z"/>
</mask>
<path d="M288 480V481H289V480H288ZM288 384H287V480H288H289V384H288ZM288 480V479H192V480V481H288V480Z" fill="#272932" mask="url(#path-167-inside-83_12_12)"/>
<mask id="path-169-inside-84_12_12" fill="white">
<path d="M288 384H384V480H288V384Z"/>
</mask>
<path d="M384 480V481H385V480H384ZM384 384H383V480H384H385V384H384ZM384 480V479H288V480V481H384V480Z" fill="#272932" mask="url(#path-169-inside-84_12_12)"/>
<mask id="path-171-inside-85_12_12" fill="white">
<path d="M384 384H480V480H384V384Z"/>
</mask>
<path d="M480 480V481H481V480H480ZM480 384H479V480H480H481V384H480ZM480 480V479H384V480V481H480V480Z" fill="#272932" mask="url(#path-171-inside-85_12_12)"/>
<mask id="path-173-inside-86_12_12" fill="white">
<path d="M480 384H576V480H480V384Z"/>
</mask>
<path d="M576 480V481H577V480H576ZM576 384H575V480H576H577V384H576ZM576 480V479H480V480V481H576V480Z" fill="#272932" mask="url(#path-173-inside-86_12_12)"/>
<mask id="path-175-inside-87_12_12" fill="white">
<path d="M576 384H672V480H576V384Z"/>
</mask>
<path d="M672 480V481H673V480H672ZM672 384H671V480H672H673V384H672ZM672 480V479H576V480V481H672V480Z" fill="#272932" mask="url(#path-175-inside-87_12_12)"/>
<mask id="path-177-inside-88_12_12" fill="white">
<path d="M672 384H768V480H672V384Z"/>
</mask>
<path d="M768 480V481H769V480H768ZM768 384H767V480H768H769V384H768ZM768 480V479H672V480V481H768V480Z" fill="#272932" mask="url(#path-177-inside-88_12_12)"/>
<mask id="path-179-inside-89_12_12" fill="white">
<path d="M768 384H864V480H768V384Z"/>
</mask>
<path d="M768 384H864V480H768V384Z" fill="#1A1D22"/>
<path d="M864 480V481H865V480H864ZM864 384H863V480H864H865V384H864ZM864 480V479H768V480V481H864V480Z" fill="#272932" mask="url(#path-179-inside-89_12_12)"/>
<mask id="path-181-inside-90_12_12" fill="white">
<path d="M864 384H960V480H864V384Z"/>
</mask>
<path d="M960 480V481H961V480H960ZM960 384H959V480H960H961V384H960ZM960 480V479H864V480V481H960V480Z" fill="#272932" mask="url(#path-181-inside-90_12_12)"/>
<mask id="path-183-inside-91_12_12" fill="white">
<path d="M960 384H1056V480H960V384Z"/>
</mask>
<path d="M1056 480V481H1057V480H1056ZM1056 384H1055V480H1056H1057V384H1056ZM1056 480V479H960V480V481H1056V480Z" fill="#272932" mask="url(#path-183-inside-91_12_12)"/>
<mask id="path-185-inside-92_12_12" fill="white">
<path d="M1056 384H1152V480H1056V384Z"/>
</mask>
<path d="M1152 480V481H1153V480H1152ZM1152 384H1151V480H1152H1153V384H1152ZM1152 480V479H1056V480V481H1152V480Z" fill="#272932" mask="url(#path-185-inside-92_12_12)"/>
<mask id="path-187-inside-93_12_12" fill="white">
<path d="M1152 384H1248V480H1152V384Z"/>
</mask>
<path d="M1248 480V481H1249V480H1248ZM1248 384H1247V480H1248H1249V384H1248ZM1248 480V479H1152V480V481H1248V480Z" fill="#272932" mask="url(#path-187-inside-93_12_12)"/>
<mask id="path-189-inside-94_12_12" fill="white">
<path d="M1248 384H1344V480H1248V384Z"/>
</mask>
<path d="M1344 480V481H1345V480H1344ZM1344 384H1343V480H1344H1345V384H1344ZM1344 480V479H1248V480V481H1344V480Z" fill="#272932" mask="url(#path-189-inside-94_12_12)"/>
<mask id="path-191-inside-95_12_12" fill="white">
<path d="M1344 384H1440V480H1344V384Z"/>
</mask>
<path d="M1440 480V481H1441V480H1440ZM1440 384H1439V480H1440H1441V384H1440ZM1440 480V479H1344V480V481H1440V480Z" fill="#272932" mask="url(#path-191-inside-95_12_12)"/>
<mask id="path-193-inside-96_12_12" fill="white">
<path d="M1440 384H1536V480H1440V384Z"/>
</mask>
<path d="M1536 480V481H1537V480H1536ZM1536 384H1535V480H1536H1537V384H1536ZM1536 480V479H1440V480V481H1536V480Z" fill="#272932" mask="url(#path-193-inside-96_12_12)"/>
<mask id="path-195-inside-97_12_12" fill="white">
<path d="M1536 384H1632V480H1536V384Z"/>
</mask>
<path d="M1632 480V481H1633V480H1632ZM1632 384H1631V480H1632H1633V384H1632ZM1632 480V479H1536V480V481H1632V480Z" fill="#272932" mask="url(#path-195-inside-97_12_12)"/>
<mask id="path-197-inside-98_12_12" fill="white">
<path d="M1632 384H1728V480H1632V384Z"/>
</mask>
<path d="M1728 480V481H1729V480H1728ZM1728 384H1727V480H1728H1729V384H1728ZM1728 480V479H1632V480V481H1728V480Z" fill="#272932" mask="url(#path-197-inside-98_12_12)"/>
<mask id="path-199-inside-99_12_12" fill="white">
<path d="M1728 384H1824V480H1728V384Z"/>
</mask>
<path d="M1728 384H1824V480H1728V384Z" fill="#1A1D22"/>
<path d="M1824 480V481H1825V480H1824ZM1824 384H1823V480H1824H1825V384H1824ZM1824 480V479H1728V480V481H1824V480Z" fill="#272932" mask="url(#path-199-inside-99_12_12)"/>
<mask id="path-201-inside-100_12_12" fill="white">
<path d="M1824 384H1920V480H1824V384Z"/>
</mask>
<path d="M1920 480V481H1921V480H1920ZM1920 384H1919V480H1920H1921V384H1920ZM1920 480V479H1824V480V481H1920V480Z" fill="#272932" mask="url(#path-201-inside-100_12_12)"/>
<mask id="path-203-inside-101_12_12" fill="white">
<path d="M0 480H96V576H0V480Z"/>
</mask>
<path d="M96 576V577H97V576H96ZM96 480H95V576H96H97V480H96ZM96 576V575H0V576V577H96V576Z" fill="#272932" mask="url(#path-203-inside-101_12_12)"/>
<mask id="path-205-inside-102_12_12" fill="white">
<path d="M96 480H192V576H96V480Z"/>
</mask>
<path d="M192 576V577H193V576H192ZM192 480H191V576H192H193V480H192ZM192 576V575H96V576V577H192V576Z" fill="#272932" mask="url(#path-205-inside-102_12_12)"/>
<mask id="path-207-inside-103_12_12" fill="white">
<path d="M192 480H288V576H192V480Z"/>
</mask>
<path d="M288 576V577H289V576H288ZM288 480H287V576H288H289V480H288ZM288 576V575H192V576V577H288V576Z" fill="#272932" mask="url(#path-207-inside-103_12_12)"/>
<mask id="path-209-inside-104_12_12" fill="white">
<path d="M288 480H384V576H288V480Z"/>
</mask>
<path d="M384 576V577H385V576H384ZM384 480H383V576H384H385V480H384ZM384 576V575H288V576V577H384V576Z" fill="#272932" mask="url(#path-209-inside-104_12_12)"/>
<mask id="path-211-inside-105_12_12" fill="white">
<path d="M384 480H480V576H384V480Z"/>
</mask>
<path d="M480 576V577H481V576H480ZM480 480H479V576H480H481V480H480ZM480 576V575H384V576V577H480V576Z" fill="#272932" mask="url(#path-211-inside-105_12_12)"/>
<mask id="path-213-inside-106_12_12" fill="white">
<path d="M480 480H576V576H480V480Z"/>
</mask>
<path d="M480 480H576V576H480V480Z" fill="#1A1D22"/>
<path d="M576 576V577H577V576H576ZM576 480H575V576H576H577V480H576ZM576 576V575H480V576V577H576V576Z" fill="#272932" mask="url(#path-213-inside-106_12_12)"/>
<mask id="path-215-inside-107_12_12" fill="white">
<path d="M576 480H672V576H576V480Z"/>
</mask>
<path d="M672 576V577H673V576H672ZM672 480H671V576H672H673V480H672ZM672 576V575H576V576V577H672V576Z" fill="#272932" mask="url(#path-215-inside-107_12_12)"/>
<mask id="path-217-inside-108_12_12" fill="white">
<path d="M672 480H768V576H672V480Z"/>
</mask>
<path d="M768 576V577H769V576H768ZM768 480H767V576H768H769V480H768ZM768 576V575H672V576V577H768V576Z" fill="#272932" mask="url(#path-217-inside-108_12_12)"/>
<mask id="path-219-inside-109_12_12" fill="white">
<path d="M768 480H864V576H768V480Z"/>
</mask>
<path d="M864 576V577H865V576H864ZM864 480H863V576H864H865V480H864ZM864 576V575H768V576V577H864V576Z" fill="#272932" mask="url(#path-219-inside-109_12_12)"/>
<mask id="path-221-inside-110_12_12" fill="white">
<path d="M864 480H960V576H864V480Z"/>
</mask>
<path d="M960 576V577H961V576H960ZM960 480H959V576H960H961V480H960ZM960 576V575H864V576V577H960V576Z" fill="#272932" mask="url(#path-221-inside-110_12_12)"/>
<mask id="path-223-inside-111_12_12" fill="white">
<path d="M960 480H1056V576H960V480Z"/>
</mask>
<path d="M1056 576V577H1057V576H1056ZM1056 480H1055V576H1056H1057V480H1056ZM1056 576V575H960V576V577H1056V576Z" fill="#272932" mask="url(#path-223-inside-111_12_12)"/>
<mask id="path-225-inside-112_12_12" fill="white">
<path d="M1056 480H1152V576H1056V480Z"/>
</mask>
<path d="M1056 480H1152V576H1056V480Z" fill="#1A1D22"/>
<path d="M1152 576V577H1153V576H1152ZM1152 480H1151V576H1152H1153V480H1152ZM1152 576V575H1056V576V577H1152V576Z" fill="#272932" mask="url(#path-225-inside-112_12_12)"/>
<mask id="path-227-inside-113_12_12" fill="white">
<path d="M1152 480H1248V576H1152V480Z"/>
</mask>
<path d="M1248 576V577H1249V576H1248ZM1248 480H1247V576H1248H1249V480H1248ZM1248 576V575H1152V576V577H1248V576Z" fill="#272932" mask="url(#path-227-inside-113_12_12)"/>
<mask id="path-229-inside-114_12_12" fill="white">
<path d="M1248 480H1344V576H1248V480Z"/>
</mask>
<path d="M1344 576V577H1345V576H1344ZM1344 480H1343V576H1344H1345V480H1344ZM1344 576V575H1248V576V577H1344V576Z" fill="#272932" mask="url(#path-229-inside-114_12_12)"/>
<mask id="path-231-inside-115_12_12" fill="white">
<path d="M1344 480H1440V576H1344V480Z"/>
</mask>
<path d="M1440 576V577H1441V576H1440ZM1440 480H1439V576H1440H1441V480H1440ZM1440 576V575H1344V576V577H1440V576Z" fill="#272932" mask="url(#path-231-inside-115_12_12)"/>
<mask id="path-233-inside-116_12_12" fill="white">
<path d="M1440 480H1536V576H1440V480Z"/>
</mask>
<path d="M1536 576V577H1537V576H1536ZM1536 480H1535V576H1536H1537V480H1536ZM1536 576V575H1440V576V577H1536V576Z" fill="#272932" mask="url(#path-233-inside-116_12_12)"/>
<mask id="path-235-inside-117_12_12" fill="white">
<path d="M1536 480H1632V576H1536V480Z"/>
</mask>
<path d="M1632 576V577H1633V576H1632ZM1632 480H1631V576H1632H1633V480H1632ZM1632 576V575H1536V576V577H1632V576Z" fill="#272932" mask="url(#path-235-inside-117_12_12)"/>
<mask id="path-237-inside-118_12_12" fill="white">
<path d="M1632 480H1728V576H1632V480Z"/>
</mask>
<path d="M1728 576V577H1729V576H1728ZM1728 480H1727V576H1728H1729V480H1728ZM1728 576V575H1632V576V577H1728V576Z" fill="#272932" mask="url(#path-237-inside-118_12_12)"/>
<mask id="path-239-inside-119_12_12" fill="white">
<path d="M1728 480H1824V576H1728V480Z"/>
</mask>
<path d="M1824 576V577H1825V576H1824ZM1824 480H1823V576H1824H1825V480H1824ZM1824 576V575H1728V576V577H1824V576Z" fill="#272932" mask="url(#path-239-inside-119_12_12)"/>
<mask id="path-241-inside-120_12_12" fill="white">
<path d="M1824 480H1920V576H1824V480Z"/>
</mask>
<path d="M1920 576V577H1921V576H1920ZM1920 480H1919V576H1920H1921V480H1920ZM1920 576V575H1824V576V577H1920V576Z" fill="#272932" mask="url(#path-241-inside-120_12_12)"/>
<mask id="path-243-inside-121_12_12" fill="white">
<path d="M0 576H96V672H0V576Z"/>
</mask>
<path d="M96 672V673H97V672H96ZM96 576H95V672H96H97V576H96ZM96 672V671H0V672V673H96V672Z" fill="#272932" mask="url(#path-243-inside-121_12_12)"/>
<mask id="path-245-inside-122_12_12" fill="white">
<path d="M96 576H192V672H96V576Z"/>
</mask>
<path d="M192 672V673H193V672H192ZM192 576H191V672H192H193V576H192ZM192 672V671H96V672V673H192V672Z" fill="#272932" mask="url(#path-245-inside-122_12_12)"/>
<mask id="path-247-inside-123_12_12" fill="white">
<path d="M192 576H288V672H192V576Z"/>
</mask>
<path d="M288 672V673H289V672H288ZM288 576H287V672H288H289V576H288ZM288 672V671H192V672V673H288V672Z" fill="#272932" mask="url(#path-247-inside-123_12_12)"/>
<mask id="path-249-inside-124_12_12" fill="white">
<path d="M288 576H384V672H288V576Z"/>
</mask>
<path d="M288 576H384V672H288V576Z" fill="#1A1D22"/>
<path d="M384 672V673H385V672H384ZM384 576H383V672H384H385V576H384ZM384 672V671H288V672V673H384V672Z" fill="#272932" mask="url(#path-249-inside-124_12_12)"/>
<mask id="path-251-inside-125_12_12" fill="white">
<path d="M384 576H480V672H384V576Z"/>
</mask>
<path d="M480 672V673H481V672H480ZM480 576H479V672H480H481V576H480ZM480 672V671H384V672V673H480V672Z" fill="#272932" mask="url(#path-251-inside-125_12_12)"/>
<mask id="path-253-inside-126_12_12" fill="white">
<path d="M480 576H576V672H480V576Z"/>
</mask>
<path d="M576 672V673H577V672H576ZM576 576H575V672H576H577V576H576ZM576 672V671H480V672V673H576V672Z" fill="#272932" mask="url(#path-253-inside-126_12_12)"/>
<mask id="path-255-inside-127_12_12" fill="white">
<path d="M576 576H672V672H576V576Z"/>
</mask>
<path d="M672 672V673H673V672H672ZM672 576H671V672H672H673V576H672ZM672 672V671H576V672V673H672V672Z" fill="#272932" mask="url(#path-255-inside-127_12_12)"/>
<mask id="path-257-inside-128_12_12" fill="white">
<path d="M672 576H768V672H672V576Z"/>
</mask>
<path d="M768 672V673H769V672H768ZM768 576H767V672H768H769V576H768ZM768 672V671H672V672V673H768V672Z" fill="#272932" mask="url(#path-257-inside-128_12_12)"/>
<mask id="path-259-inside-129_12_12" fill="white">
<path d="M768 576H864V672H768V576Z"/>
</mask>
<path d="M864 672V673H865V672H864ZM864 576H863V672H864H865V576H864ZM864 672V671H768V672V673H864V672Z" fill="#272932" mask="url(#path-259-inside-129_12_12)"/>
<mask id="path-261-inside-130_12_12" fill="white">
<path d="M864 576H960V672H864V576Z"/>
</mask>
<path d="M960 672V673H961V672H960ZM960 576H959V672H960H961V576H960ZM960 672V671H864V672V673H960V672Z" fill="#272932" mask="url(#path-261-inside-130_12_12)"/>
<mask id="path-263-inside-131_12_12" fill="white">
<path d="M960 576H1056V672H960V576Z"/>
</mask>
<path d="M1056 672V673H1057V672H1056ZM1056 576H1055V672H1056H1057V576H1056ZM1056 672V671H960V672V673H1056V672Z" fill="#272932" mask="url(#path-263-inside-131_12_12)"/>
<mask id="path-265-inside-132_12_12" fill="white">
<path d="M1056 576H1152V672H1056V576Z"/>
</mask>
<path d="M1152 672V673H1153V672H1152ZM1152 576H1151V672H1152H1153V576H1152ZM1152 672V671H1056V672V673H1152V672Z" fill="#272932" mask="url(#path-265-inside-132_12_12)"/>
<mask id="path-267-inside-133_12_12" fill="white">
<path d="M1152 576H1248V672H1152V576Z"/>
</mask>
<path d="M1248 672V673H1249V672H1248ZM1248 576H1247V672H1248H1249V576H1248ZM1248 672V671H1152V672V673H1248V672Z" fill="#272932" mask="url(#path-267-inside-133_12_12)"/>
<mask id="path-269-inside-134_12_12" fill="white">
<path d="M1248 576H1344V672H1248V576Z"/>
</mask>
<path d="M1344 672V673H1345V672H1344ZM1344 576H1343V672H1344H1345V576H1344ZM1344 672V671H1248V672V673H1344V672Z" fill="#272932" mask="url(#path-269-inside-134_12_12)"/>
<mask id="path-271-inside-135_12_12" fill="white">
<path d="M1344 576H1440V672H1344V576Z"/>
</mask>
<path d="M1440 672V673H1441V672H1440ZM1440 576H1439V672H1440H1441V576H1440ZM1440 672V671H1344V672V673H1440V672Z" fill="#272932" mask="url(#path-271-inside-135_12_12)"/>
<mask id="path-273-inside-136_12_12" fill="white">
<path d="M1440 576H1536V672H1440V576Z"/>
</mask>
<path d="M1536 672V673H1537V672H1536ZM1536 576H1535V672H1536H1537V576H1536ZM1536 672V671H1440V672V673H1536V672Z" fill="#272932" mask="url(#path-273-inside-136_12_12)"/>
<mask id="path-275-inside-137_12_12" fill="white">
<path d="M1536 576H1632V672H1536V576Z"/>
</mask>
<path d="M1536 576H1632V672H1536V576Z" fill="#1A1D22"/>
<path d="M1632 672V673H1633V672H1632ZM1632 576H1631V672H1632H1633V576H1632ZM1632 672V671H1536V672V673H1632V672Z" fill="#272932" mask="url(#path-275-inside-137_12_12)"/>
<mask id="path-277-inside-138_12_12" fill="white">
<path d="M1632 576H1728V672H1632V576Z"/>
</mask>
<path d="M1728 672V673H1729V672H1728ZM1728 576H1727V672H1728H1729V576H1728ZM1728 672V671H1632V672V673H1728V672Z" fill="#272932" mask="url(#path-277-inside-138_12_12)"/>
<mask id="path-279-inside-139_12_12" fill="white">
<path d="M1728 576H1824V672H1728V576Z"/>
</mask>
<path d="M1824 672V673H1825V672H1824ZM1824 576H1823V672H1824H1825V576H1824ZM1824 672V671H1728V672V673H1824V672Z" fill="#272932" mask="url(#path-279-inside-139_12_12)"/>
<mask id="path-281-inside-140_12_12" fill="white">
<path d="M1824 576H1920V672H1824V576Z"/>
</mask>
<path d="M1920 672V673H1921V672H1920ZM1920 576H1919V672H1920H1921V576H1920ZM1920 672V671H1824V672V673H1920V672Z" fill="#272932" mask="url(#path-281-inside-140_12_12)"/>
<mask id="path-283-inside-141_12_12" fill="white">
<path d="M0 672H96V768H0V672Z"/>
</mask>
<path d="M96 768V769H97V768H96ZM96 672H95V768H96H97V672H96ZM96 768V767H0V768V769H96V768Z" fill="#272932" mask="url(#path-283-inside-141_12_12)"/>
<mask id="path-285-inside-142_12_12" fill="white">
<path d="M96 672H192V768H96V672Z"/>
</mask>
<path d="M192 768V769H193V768H192ZM192 672H191V768H192H193V672H192ZM192 768V767H96V768V769H192V768Z" fill="#272932" mask="url(#path-285-inside-142_12_12)"/>
<mask id="path-287-inside-143_12_12" fill="white">
<path d="M192 672H288V768H192V672Z"/>
</mask>
<path d="M288 768V769H289V768H288ZM288 672H287V768H288H289V672H288ZM288 768V767H192V768V769H288V768Z" fill="#272932" mask="url(#path-287-inside-143_12_12)"/>
<mask id="path-289-inside-144_12_12" fill="white">
<path d="M288 672H384V768H288V672Z"/>
</mask>
<path d="M384 768V769H385V768H384ZM384 672H383V768H384H385V672H384ZM384 768V767H288V768V769H384V768Z" fill="#272932" mask="url(#path-289-inside-144_12_12)"/>
<mask id="path-291-inside-145_12_12" fill="white">
<path d="M384 672H480V768H384V672Z"/>
</mask>
<path d="M480 768V769H481V768H480ZM480 672H479V768H480H481V672H480ZM480 768V767H384V768V769H480V768Z" fill="#272932" mask="url(#path-291-inside-145_12_12)"/>
<mask id="path-293-inside-146_12_12" fill="white">
<path d="M480 672H576V768H480V672Z"/>
</mask>
<path d="M576 768V769H577V768H576ZM576 672H575V768H576H577V672H576ZM576 768V767H480V768V769H576V768Z" fill="#272932" mask="url(#path-293-inside-146_12_12)"/>
<mask id="path-295-inside-147_12_12" fill="white">
<path d="M576 672H672V768H576V672Z"/>
</mask>
<path d="M672 768V769H673V768H672ZM672 672H671V768H672H673V672H672ZM672 768V767H576V768V769H672V768Z" fill="#272932" mask="url(#path-295-inside-147_12_12)"/>
<mask id="path-297-inside-148_12_12" fill="white">
<path d="M672 672H768V768H672V672Z"/>
</mask>
<path d="M768 768V769H769V768H768ZM768 672H767V768H768H769V672H768ZM768 768V767H672V768V769H768V768Z" fill="#272932" mask="url(#path-297-inside-148_12_12)"/>
<mask id="path-299-inside-149_12_12" fill="white">
<path d="M768 672H864V768H768V672Z"/>
</mask>
<path d="M768 672H864V768H768V672Z" fill="#1A1D22"/>
<path d="M864 768V769H865V768H864ZM864 672H863V768H864H865V672H864ZM864 768V767H768V768V769H864V768Z" fill="#272932" mask="url(#path-299-inside-149_12_12)"/>
<mask id="path-301-inside-150_12_12" fill="white">
<path d="M864 672H960V768H864V672Z"/>
</mask>
<path d="M960 768V769H961V768H960ZM960 672H959V768H960H961V672H960ZM960 768V767H864V768V769H960V768Z" fill="#272932" mask="url(#path-301-inside-150_12_12)"/>
<mask id="path-303-inside-151_12_12" fill="white">
<path d="M960 672H1056V768H960V672Z"/>
</mask>
<path d="M1056 768V769H1057V768H1056ZM1056 672H1055V768H1056H1057V672H1056ZM1056 768V767H960V768V769H1056V768Z" fill="#272932" mask="url(#path-303-inside-151_12_12)"/>
<mask id="path-305-inside-152_12_12" fill="white">
<path d="M1056 672H1152V768H1056V672Z"/>
</mask>
<path d="M1152 768V769H1153V768H1152ZM1152 672H1151V768H1152H1153V672H1152ZM1152 768V767H1056V768V769H1152V768Z" fill="#272932" mask="url(#path-305-inside-152_12_12)"/>
<mask id="path-307-inside-153_12_12" fill="white">
<path d="M1152 672H1248V768H1152V672Z"/>
</mask>
<path d="M1248 768V769H1249V768H1248ZM1248 672H1247V768H1248H1249V672H1248ZM1248 768V767H1152V768V769H1248V768Z" fill="#272932" mask="url(#path-307-inside-153_12_12)"/>
<mask id="path-309-inside-154_12_12" fill="white">
<path d="M1248 672H1344V768H1248V672Z"/>
</mask>
<path d="M1344 768V769H1345V768H1344ZM1344 672H1343V768H1344H1345V672H1344ZM1344 768V767H1248V768V769H1344V768Z" fill="#272932" mask="url(#path-309-inside-154_12_12)"/>
<mask id="path-311-inside-155_12_12" fill="white">
<path d="M1344 672H1440V768H1344V672Z"/>
</mask>
<path d="M1344 672H1440V768H1344V672Z" fill="#1A1D22"/>
<path d="M1440 768V769H1441V768H1440ZM1440 672H1439V768H1440H1441V672H1440ZM1440 768V767H1344V768V769H1440V768Z" fill="#272932" mask="url(#path-311-inside-155_12_12)"/>
<mask id="path-313-inside-156_12_12" fill="white">
<path d="M1440 672H1536V768H1440V672Z"/>
</mask>
<path d="M1536 768V769H1537V768H1536ZM1536 672H1535V768H1536H1537V672H1536ZM1536 768V767H1440V768V769H1536V768Z" fill="#272932" mask="url(#path-313-inside-156_12_12)"/>
<mask id="path-315-inside-157_12_12" fill="white">
<path d="M1536 672H1632V768H1536V672Z"/>
</mask>
<path d="M1632 768V769H1633V768H1632ZM1632 672H1631V768H1632H1633V672H1632ZM1632 768V767H1536V768V769H1632V768Z" fill="#272932" mask="url(#path-315-inside-157_12_12)"/>
<mask id="path-317-inside-158_12_12" fill="white">
<path d="M1632 672H1728V768H1632V672Z"/>
</mask>
<path d="M1728 768V769H1729V768H1728ZM1728 672H1727V768H1728H1729V672H1728ZM1728 768V767H1632V768V769H1728V768Z" fill="#272932" mask="url(#path-317-inside-158_12_12)"/>
<mask id="path-319-inside-159_12_12" fill="white">
<path d="M1728 672H1824V768H1728V672Z"/>
</mask>
<path d="M1824 768V769H1825V768H1824ZM1824 672H1823V768H1824H1825V672H1824ZM1824 768V767H1728V768V769H1824V768Z" fill="#272932" mask="url(#path-319-inside-159_12_12)"/>
<mask id="path-321-inside-160_12_12" fill="white">
<path d="M1824 672H1920V768H1824V672Z"/>
</mask>
<path d="M1920 768V769H1921V768H1920ZM1920 672H1919V768H1920H1921V672H1920ZM1920 768V767H1824V768V769H1920V768Z" fill="#272932" mask="url(#path-321-inside-160_12_12)"/>
<mask id="path-323-inside-161_12_12" fill="white">
<path d="M0 768H96V864H0V768Z"/>
</mask>
<path d="M96 864V865H97V864H96ZM96 768H95V864H96H97V768H96ZM96 864V863H0V864V865H96V864Z" fill="#272932" mask="url(#path-323-inside-161_12_12)"/>
<mask id="path-325-inside-162_12_12" fill="white">
<path d="M96 768H192V864H96V768Z"/>
</mask>
<path d="M192 864V865H193V864H192ZM192 768H191V864H192H193V768H192ZM192 864V863H96V864V865H192V864Z" fill="#272932" mask="url(#path-325-inside-162_12_12)"/>
<mask id="path-327-inside-163_12_12" fill="white">
<path d="M192 768H288V864H192V768Z"/>
</mask>
<path d="M288 864V865H289V864H288ZM288 768H287V864H288H289V768H288ZM288 864V863H192V864V865H288V864Z" fill="#272932" mask="url(#path-327-inside-163_12_12)"/>
<mask id="path-329-inside-164_12_12" fill="white">
<path d="M288 768H384V864H288V768Z"/>
</mask>
<path d="M384 864V865H385V864H384ZM384 768H383V864H384H385V768H384ZM384 864V863H288V864V865H384V864Z" fill="#272932" mask="url(#path-329-inside-164_12_12)"/>
<mask id="path-331-inside-165_12_12" fill="white">
<path d="M384 768H480V864H384V768Z"/>
</mask>
<path d="M480 864V865H481V864H480ZM480 768H479V864H480H481V768H480ZM480 864V863H384V864V865H480V864Z" fill="#272932" mask="url(#path-331-inside-165_12_12)"/>
<mask id="path-333-inside-166_12_12" fill="white">
<path d="M480 768H576V864H480V768Z"/>
</mask>
<path d="M480 768H576V864H480V768Z" fill="#1A1D22"/>
<path d="M576 864V865H577V864H576ZM576 768H575V864H576H577V768H576ZM576 864V863H480V864V865H576V864Z" fill="#272932" mask="url(#path-333-inside-166_12_12)"/>
<mask id="path-335-inside-167_12_12" fill="white">
<path d="M576 768H672V864H576V768Z"/>
</mask>
<path d="M672 864V865H673V864H672ZM672 768H671V864H672H673V768H672ZM672 864V863H576V864V865H672V864Z" fill="#272932" mask="url(#path-335-inside-167_12_12)"/>
<mask id="path-337-inside-168_12_12" fill="white">
<path d="M672 768H768V864H672V768Z"/>
</mask>
<path d="M768 864V865H769V864H768ZM768 768H767V864H768H769V768H768ZM768 864V863H672V864V865H768V864Z" fill="#272932" mask="url(#path-337-inside-168_12_12)"/>
<mask id="path-339-inside-169_12_12" fill="white">
<path d="M768 768H864V864H768V768Z"/>
</mask>
<path d="M864 864V865H865V864H864ZM864 768H863V864H864H865V768H864ZM864 864V863H768V864V865H864V864Z" fill="#272932" mask="url(#path-339-inside-169_12_12)"/>
<mask id="path-341-inside-170_12_12" fill="white">
<path d="M864 768H960V864H864V768Z"/>
</mask>
<path d="M960 864V865H961V864H960ZM960 768H959V864H960H961V768H960ZM960 864V863H864V864V865H960V864Z" fill="#272932" mask="url(#path-341-inside-170_12_12)"/>
<mask id="path-343-inside-171_12_12" fill="white">
<path d="M960 768H1056V864H960V768Z"/>
</mask>
<path d="M1056 864V865H1057V864H1056ZM1056 768H1055V864H1056H1057V768H1056ZM1056 864V863H960V864V865H1056V864Z" fill="#272932" mask="url(#path-343-inside-171_12_12)"/>
<mask id="path-345-inside-172_12_12" fill="white">
<path d="M1056 768H1152V864H1056V768Z"/>
</mask>
<path d="M1056 768H1152V864H1056V768Z" fill="#1A1D22"/>
<path d="M1152 864V865H1153V864H1152ZM1152 768H1151V864H1152H1153V768H1152ZM1152 864V863H1056V864V865H1152V864Z" fill="#272932" mask="url(#path-345-inside-172_12_12)"/>
<mask id="path-347-inside-173_12_12" fill="white">
<path d="M1152 768H1248V864H1152V768Z"/>
</mask>
<path d="M1248 864V865H1249V864H1248ZM1248 768H1247V864H1248H1249V768H1248ZM1248 864V863H1152V864V865H1248V864Z" fill="#272932" mask="url(#path-347-inside-173_12_12)"/>
<mask id="path-349-inside-174_12_12" fill="white">
<path d="M1248 768H1344V864H1248V768Z"/>
</mask>
<path d="M1344 864V865H1345V864H1344ZM1344 768H1343V864H1344H1345V768H1344ZM1344 864V863H1248V864V865H1344V864Z" fill="#272932" mask="url(#path-349-inside-174_12_12)"/>
<mask id="path-351-inside-175_12_12" fill="white">
<path d="M1344 768H1440V864H1344V768Z"/>
</mask>
<path d="M1440 864V865H1441V864H1440ZM1440 768H1439V864H1440H1441V768H1440ZM1440 864V863H1344V864V865H1440V864Z" fill="#272932" mask="url(#path-351-inside-175_12_12)"/>
<mask id="path-353-inside-176_12_12" fill="white">
<path d="M1440 768H1536V864H1440V768Z"/>
</mask>
<path d="M1536 864V865H1537V864H1536ZM1536 768H1535V864H1536H1537V768H1536ZM1536 864V863H1440V864V865H1536V864Z" fill="#272932" mask="url(#path-353-inside-176_12_12)"/>
<mask id="path-355-inside-177_12_12" fill="white">
<path d="M1536 768H1632V864H1536V768Z"/>
</mask>
<path d="M1632 864V865H1633V864H1632ZM1632 768H1631V864H1632H1633V768H1632ZM1632 864V863H1536V864V865H1632V864Z" fill="#272932" mask="url(#path-355-inside-177_12_12)"/>
<mask id="path-357-inside-178_12_12" fill="white">
<path d="M1632 768H1728V864H1632V768Z"/>
</mask>
<path d="M1728 864V865H1729V864H1728ZM1728 768H1727V864H1728H1729V768H1728ZM1728 864V863H1632V864V865H1728V864Z" fill="#272932" mask="url(#path-357-inside-178_12_12)"/>
<mask id="path-359-inside-179_12_12" fill="white">
<path d="M1728 768H1824V864H1728V768Z"/>
</mask>
<path d="M1824 864V865H1825V864H1824ZM1824 768H1823V864H1824H1825V768H1824ZM1824 864V863H1728V864V865H1824V864Z" fill="#272932" mask="url(#path-359-inside-179_12_12)"/>
<mask id="path-361-inside-180_12_12" fill="white">
<path d="M1824 768H1920V864H1824V768Z"/>
</mask>
<path d="M1920 864V865H1921V864H1920ZM1920 768H1919V864H1920H1921V768H1920ZM1920 864V863H1824V864V865H1920V864Z" fill="#272932" mask="url(#path-361-inside-180_12_12)"/>
<mask id="path-363-inside-181_12_12" fill="white">
<path d="M0 864H96V960H0V864Z"/>
</mask>
<path d="M96 960V961H97V960H96ZM96 864H95V960H96H97V864H96ZM96 960V959H0V960V961H96V960Z" fill="#272932" mask="url(#path-363-inside-181_12_12)"/>
<mask id="path-365-inside-182_12_12" fill="white">
<path d="M96 864H192V960H96V864Z"/>
</mask>
<path d="M96 864H192V960H96V864Z" fill="#1A1D22"/>
<path d="M192 960V961H193V960H192ZM192 864H191V960H192H193V864H192ZM192 960V959H96V960V961H192V960Z" fill="#272932" mask="url(#path-365-inside-182_12_12)"/>
<mask id="path-367-inside-183_12_12" fill="white">
<path d="M192 864H288V960H192V864Z"/>
</mask>
<path d="M288 960V961H289V960H288ZM288 864H287V960H288H289V864H288ZM288 960V959H192V960V961H288V960Z" fill="#272932" mask="url(#path-367-inside-183_12_12)"/>
<mask id="path-369-inside-184_12_12" fill="white">
<path d="M288 864H384V960H288V864Z"/>
</mask>
<path d="M384 960V961H385V960H384ZM384 864H383V960H384H385V864H384ZM384 960V959H288V960V961H384V960Z" fill="#272932" mask="url(#path-369-inside-184_12_12)"/>
<mask id="path-371-inside-185_12_12" fill="white">
<path d="M384 864H480V960H384V864Z"/>
</mask>
<path d="M480 960V961H481V960H480ZM480 864H479V960H480H481V864H480ZM480 960V959H384V960V961H480V960Z" fill="#272932" mask="url(#path-371-inside-185_12_12)"/>
<mask id="path-373-inside-186_12_12" fill="white">
<path d="M480 864H576V960H480V864Z"/>
</mask>
<path d="M576 960V961H577V960H576ZM576 864H575V960H576H577V864H576ZM576 960V959H480V960V961H576V960Z" fill="#272932" mask="url(#path-373-inside-186_12_12)"/>
<mask id="path-375-inside-187_12_12" fill="white">
<path d="M576 864H672V960H576V864Z"/>
</mask>
<path d="M672 960V961H673V960H672ZM672 864H671V960H672H673V864H672ZM672 960V959H576V960V961H672V960Z" fill="#272932" mask="url(#path-375-inside-187_12_12)"/>
<mask id="path-377-inside-188_12_12" fill="white">
<path d="M672 864H768V960H672V864Z"/>
</mask>
<path d="M768 960V961H769V960H768ZM768 864H767V960H768H769V864H768ZM768 960V959H672V960V961H768V960Z" fill="#272932" mask="url(#path-377-inside-188_12_12)"/>
<mask id="path-379-inside-189_12_12" fill="white">
<path d="M768 864H864V960H768V864Z"/>
</mask>
<path d="M864 960V961H865V960H864ZM864 864H863V960H864H865V864H864ZM864 960V959H768V960V961H864V960Z" fill="#272932" mask="url(#path-379-inside-189_12_12)"/>
<mask id="path-381-inside-190_12_12" fill="white">
<path d="M864 864H960V960H864V864Z"/>
</mask>
<path d="M960 960V961H961V960H960ZM960 864H959V960H960H961V864H960ZM960 960V959H864V960V961H960V960Z" fill="#272932" mask="url(#path-381-inside-190_12_12)"/>
<mask id="path-383-inside-191_12_12" fill="white">
<path d="M960 864H1056V960H960V864Z"/>
</mask>
<path d="M1056 960V961H1057V960H1056ZM1056 864H1055V960H1056H1057V864H1056ZM1056 960V959H960V960V961H1056V960Z" fill="#272932" mask="url(#path-383-inside-191_12_12)"/>
<mask id="path-385-inside-192_12_12" fill="white">
<path d="M1056 864H1152V960H1056V864Z"/>
</mask>
<path d="M1152 960V961H1153V960H1152ZM1152 864H1151V960H1152H1153V864H1152ZM1152 960V959H1056V960V961H1152V960Z" fill="#272932" mask="url(#path-385-inside-192_12_12)"/>
<mask id="path-387-inside-193_12_12" fill="white">
<path d="M1152 864H1248V960H1152V864Z"/>
</mask>
<path d="M1248 960V961H1249V960H1248ZM1248 864H1247V960H1248H1249V864H1248ZM1248 960V959H1152V960V961H1248V960Z" fill="#272932" mask="url(#path-387-inside-193_12_12)"/>
<mask id="path-389-inside-194_12_12" fill="white">
<path d="M1248 864H1344V960H1248V864Z"/>
</mask>
<path d="M1344 960V961H1345V960H1344ZM1344 864H1343V960H1344H1345V864H1344ZM1344 960V959H1248V960V961H1344V960Z" fill="#272932" mask="url(#path-389-inside-194_12_12)"/>
<mask id="path-391-inside-195_12_12" fill="white">
<path d="M1344 864H1440V960H1344V864Z"/>
</mask>
<path d="M1440 960V961H1441V960H1440ZM1440 864H1439V960H1440H1441V864H1440ZM1440 960V959H1344V960V961H1440V960Z" fill="#272932" mask="url(#path-391-inside-195_12_12)"/>
<mask id="path-393-inside-196_12_12" fill="white">
<path d="M1440 864H1536V960H1440V864Z"/>
</mask>
<path d="M1536 960V961H1537V960H1536ZM1536 864H1535V960H1536H1537V864H1536ZM1536 960V959H1440V960V961H1536V960Z" fill="#272932" mask="url(#path-393-inside-196_12_12)"/>
<mask id="path-395-inside-197_12_12" fill="white">
<path d="M1536 864H1632V960H1536V864Z"/>
</mask>
<path d="M1632 960V961H1633V960H1632ZM1632 864H1631V960H1632H1633V864H1632ZM1632 960V959H1536V960V961H1632V960Z" fill="#272932" mask="url(#path-395-inside-197_12_12)"/>
<mask id="path-397-inside-198_12_12" fill="white">
<path d="M1632 864H1728V960H1632V864Z"/>
</mask>
<path d="M1632 864H1728V960H1632V864Z" fill="#1A1D22"/>
<path d="M1728 960V961H1729V960H1728ZM1728 864H1727V960H1728H1729V864H1728ZM1728 960V959H1632V960V961H1728V960Z" fill="#272932" mask="url(#path-397-inside-198_12_12)"/>
<mask id="path-399-inside-199_12_12" fill="white">
<path d="M1728 864H1824V960H1728V864Z"/>
</mask>
<path d="M1824 960V961H1825V960H1824ZM1824 864H1823V960H1824H1825V864H1824ZM1824 960V959H1728V960V961H1824V960Z" fill="#272932" mask="url(#path-399-inside-199_12_12)"/>
<mask id="path-401-inside-200_12_12" fill="white">
<path d="M1824 864H1920V960H1824V864Z"/>
</mask>
<path d="M1920 960V961H1921V960H1920ZM1920 864H1919V960H1920H1921V864H1920ZM1920 960V959H1824V960V961H1920V960Z" fill="#272932" mask="url(#path-401-inside-200_12_12)"/>
<mask id="path-403-inside-201_12_12" fill="white">
<path d="M0 960H96V1056H0V960Z"/>
</mask>
<path d="M96 1056V1057H97V1056H96ZM96 960H95V1056H96H97V960H96ZM96 1056V1055H0V1056V1057H96V1056Z" fill="#272932" mask="url(#path-403-inside-201_12_12)"/>
<mask id="path-405-inside-202_12_12" fill="white">
<path d="M96 960H192V1056H96V960Z"/>
</mask>
<path d="M192 1056V1057H193V1056H192ZM192 960H191V1056H192H193V960H192ZM192 1056V1055H96V1056V1057H192V1056Z" fill="#272932" mask="url(#path-405-inside-202_12_12)"/>
<mask id="path-407-inside-203_12_12" fill="white">
<path d="M192 960H288V1056H192V960Z"/>
</mask>
<path d="M288 1056V1057H289V1056H288ZM288 960H287V1056H288H289V960H288ZM288 1056V1055H192V1056V1057H288V1056Z" fill="#272932" mask="url(#path-407-inside-203_12_12)"/>
<mask id="path-409-inside-204_12_12" fill="white">
<path d="M288 960H384V1056H288V960Z"/>
</mask>
<path d="M384 1056V1057H385V1056H384ZM384 960H383V1056H384H385V960H384ZM384 1056V1055H288V1056V1057H384V1056Z" fill="#272932" mask="url(#path-409-inside-204_12_12)"/>
<mask id="path-411-inside-205_12_12" fill="white">
<path d="M384 960H480V1056H384V960Z"/>
</mask>
<path d="M480 1056V1057H481V1056H480ZM480 960H479V1056H480H481V960H480ZM480 1056V1055H384V1056V1057H480V1056Z" fill="#272932" mask="url(#path-411-inside-205_12_12)"/>
<mask id="path-413-inside-206_12_12" fill="white">
<path d="M480 960H576V1056H480V960Z"/>
</mask>
<path d="M576 1056V1057H577V1056H576ZM576 960H575V1056H576H577V960H576ZM576 1056V1055H480V1056V1057H576V1056Z" fill="#272932" mask="url(#path-413-inside-206_12_12)"/>
<mask id="path-415-inside-207_12_12" fill="white">
<path d="M576 960H672V1056H576V960Z"/>
</mask>
<path d="M576 960H672V1056H576V960Z" fill="#1A1D22"/>
<path d="M672 1056V1057H673V1056H672ZM672 960H671V1056H672H673V960H672ZM672 1056V1055H576V1056V1057H672V1056Z" fill="#272932" mask="url(#path-415-inside-207_12_12)"/>
<mask id="path-417-inside-208_12_12" fill="white">
<path d="M672 960H768V1056H672V960Z"/>
</mask>
<path d="M768 1056V1057H769V1056H768ZM768 960H767V1056H768H769V960H768ZM768 1056V1055H672V1056V1057H768V1056Z" fill="#272932" mask="url(#path-417-inside-208_12_12)"/>
<mask id="path-419-inside-209_12_12" fill="white">
<path d="M768 960H864V1056H768V960Z"/>
</mask>
<path d="M864 1056V1057H865V1056H864ZM864 960H863V1056H864H865V960H864ZM864 1056V1055H768V1056V1057H864V1056Z" fill="#272932" mask="url(#path-419-inside-209_12_12)"/>
<mask id="path-421-inside-210_12_12" fill="white">
<path d="M864 960H960V1056H864V960Z"/>
</mask>
<path d="M960 1056V1057H961V1056H960ZM960 960H959V1056H960H961V960H960ZM960 1056V1055H864V1056V1057H960V1056Z" fill="#272932" mask="url(#path-421-inside-210_12_12)"/>
<mask id="path-423-inside-211_12_12" fill="white">
<path d="M960 960H1056V1056H960V960Z"/>
</mask>
<path d="M960 960H1056V1056H960V960Z" fill="#1A1D22"/>
<path d="M1056 1056V1057H1057V1056H1056ZM1056 960H1055V1056H1056H1057V960H1056ZM1056 1056V1055H960V1056V1057H1056V1056Z" fill="#272932" mask="url(#path-423-inside-211_12_12)"/>
<mask id="path-425-inside-212_12_12" fill="white">
<path d="M1056 960H1152V1056H1056V960Z"/>
</mask>
<path d="M1152 1056V1057H1153V1056H1152ZM1152 960H1151V1056H1152H1153V960H1152ZM1152 1056V1055H1056V1056V1057H1152V1056Z" fill="#272932" mask="url(#path-425-inside-212_12_12)"/>
<mask id="path-427-inside-213_12_12" fill="white">
<path d="M1152 960H1248V1056H1152V960Z"/>
</mask>
<path d="M1248 1056V1057H1249V1056H1248ZM1248 960H1247V1056H1248H1249V960H1248ZM1248 1056V1055H1152V1056V1057H1248V1056Z" fill="#272932" mask="url(#path-427-inside-213_12_12)"/>
<mask id="path-429-inside-214_12_12" fill="white">
<path d="M1248 960H1344V1056H1248V960Z"/>
</mask>
<path d="M1344 1056V1057H1345V1056H1344ZM1344 960H1343V1056H1344H1345V960H1344ZM1344 1056V1055H1248V1056V1057H1344V1056Z" fill="#272932" mask="url(#path-429-inside-214_12_12)"/>
<mask id="path-431-inside-215_12_12" fill="white">
<path d="M1344 960H1440V1056H1344V960Z"/>
</mask>
<path d="M1440 1056V1057H1441V1056H1440ZM1440 960H1439V1056H1440H1441V960H1440ZM1440 1056V1055H1344V1056V1057H1440V1056Z" fill="#272932" mask="url(#path-431-inside-215_12_12)"/>
<mask id="path-433-inside-216_12_12" fill="white">
<path d="M1440 960H1536V1056H1440V960Z"/>
</mask>
<path d="M1536 1056V1057H1537V1056H1536ZM1536 960H1535V1056H1536H1537V960H1536ZM1536 1056V1055H1440V1056V1057H1536V1056Z" fill="#272932" mask="url(#path-433-inside-216_12_12)"/>
<mask id="path-435-inside-217_12_12" fill="white">
<path d="M1536 960H1632V1056H1536V960Z"/>
</mask>
<path d="M1632 1056V1057H1633V1056H1632ZM1632 960H1631V1056H1632H1633V960H1632ZM1632 1056V1055H1536V1056V1057H1632V1056Z" fill="#272932" mask="url(#path-435-inside-217_12_12)"/>
<mask id="path-437-inside-218_12_12" fill="white">
<path d="M1632 960H1728V1056H1632V960Z"/>
</mask>
<path d="M1728 1056V1057H1729V1056H1728ZM1728 960H1727V1056H1728H1729V960H1728ZM1728 1056V1055H1632V1056V1057H1728V1056Z" fill="#272932" mask="url(#path-437-inside-218_12_12)"/>
<mask id="path-439-inside-219_12_12" fill="white">
<path d="M1728 960H1824V1056H1728V960Z"/>
</mask>
<path d="M1824 1056V1057H1825V1056H1824ZM1824 960H1823V1056H1824H1825V960H1824ZM1824 1056V1055H1728V1056V1057H1824V1056Z" fill="#272932" mask="url(#path-439-inside-219_12_12)"/>
<mask id="path-441-inside-220_12_12" fill="white">
<path d="M1824 960H1920V1056H1824V960Z"/>
</mask>
<path d="M1920 1056V1057H1921V1056H1920ZM1920 960H1919V1056H1920H1921V960H1920ZM1920 1056V1055H1824V1056V1057H1920V1056Z" fill="#272932" mask="url(#path-441-inside-220_12_12)"/>
<g clip-path="url(#clip2_12_12)">
<mask id="path-443-inside-221_12_12" fill="white">
<path d="M0 1056H96V1152H0V1056Z"/>
</mask>
<circle cx="123.5" cy="1211.5" r="98.5" fill="#1A1D22"/>
</g>
<path d="M96 1152V1153H97V1152H96ZM96 1056H95V1152H96H97V1056H96ZM96 1152V1151H0V1152V1153H96V1152Z" fill="#272932" mask="url(#path-443-inside-221_12_12)"/>
<mask id="path-446-inside-222_12_12" fill="white">
<path d="M96 1056H192V1152H96V1056Z"/>
</mask>
<path d="M192 1152V1153H193V1152H192ZM192 1056H191V1152H192H193V1056H192ZM192 1152V1151H96V1152V1153H192V1152Z" fill="#272932" mask="url(#path-446-inside-222_12_12)"/>
<mask id="path-448-inside-223_12_12" fill="white">
<path d="M192 1056H288V1152H192V1056Z"/>
</mask>
<path d="M192 1056H288V1152H192V1056Z" fill="#1A1D22"/>
<path d="M288 1152V1153H289V1152H288ZM288 1056H287V1152H288H289V1056H288ZM288 1152V1151H192V1152V1153H288V1152Z" fill="#272932" mask="url(#path-448-inside-223_12_12)"/>
<mask id="path-450-inside-224_12_12" fill="white">
<path d="M288 1056H384V1152H288V1056Z"/>
</mask>
<path d="M384 1152V1153H385V1152H384ZM384 1056H383V1152H384H385V1056H384ZM384 1152V1151H288V1152V1153H384V1152Z" fill="#272932" mask="url(#path-450-inside-224_12_12)"/>
<mask id="path-452-inside-225_12_12" fill="white">
<path d="M384 1056H480V1152H384V1056Z"/>
</mask>
<path d="M480 1152V1153H481V1152H480ZM480 1056H479V1152H480H481V1056H480ZM480 1152V1151H384V1152V1153H480V1152Z" fill="#272932" mask="url(#path-452-inside-225_12_12)"/>
<mask id="path-454-inside-226_12_12" fill="white">
<path d="M480 1056H576V1152H480V1056Z"/>
</mask>
<path d="M576 1152V1153H577V1152H576ZM576 1056H575V1152H576H577V1056H576ZM576 1152V1151H480V1152V1153H576V1152Z" fill="#272932" mask="url(#path-454-inside-226_12_12)"/>
<mask id="path-456-inside-227_12_12" fill="white">
<path d="M576 1056H672V1152H576V1056Z"/>
</mask>
<path d="M672 1152V1153H673V1152H672ZM672 1056H671V1152H672H673V1056H672ZM672 1152V1151H576V1152V1153H672V1152Z" fill="#272932" mask="url(#path-456-inside-227_12_12)"/>
<mask id="path-458-inside-228_12_12" fill="white">
<path d="M672 1056H768V1152H672V1056Z"/>
</mask>
<path d="M768 1152V1153H769V1152H768ZM768 1056H767V1152H768H769V1056H768ZM768 1152V1151H672V1152V1153H768V1152Z" fill="#272932" mask="url(#path-458-inside-228_12_12)"/>
<mask id="path-460-inside-229_12_12" fill="white">
<path d="M768 1056H864V1152H768V1056Z"/>
</mask>
<path d="M864 1152V1153H865V1152H864ZM864 1056H863V1152H864H865V1056H864ZM864 1152V1151H768V1152V1153H864V1152Z" fill="#272932" mask="url(#path-460-inside-229_12_12)"/>
<mask id="path-462-inside-230_12_12" fill="white">
<path d="M864 1056H960V1152H864V1056Z"/>
</mask>
<path d="M960 1152V1153H961V1152H960ZM960 1056H959V1152H960H961V1056H960ZM960 1152V1151H864V1152V1153H960V1152Z" fill="#272932" mask="url(#path-462-inside-230_12_12)"/>
<mask id="path-464-inside-231_12_12" fill="white">
<path d="M960 1056H1056V1152H960V1056Z"/>
</mask>
<path d="M1056 1152V1153H1057V1152H1056ZM1056 1056H1055V1152H1056H1057V1056H1056ZM1056 1152V1151H960V1152V1153H1056V1152Z" fill="#272932" mask="url(#path-464-inside-231_12_12)"/>
<mask id="path-466-inside-232_12_12" fill="white">
<path d="M1056 1056H1152V1152H1056V1056Z"/>
</mask>
<path d="M1152 1152V1153H1153V1152H1152ZM1152 1056H1151V1152H1152H1153V1056H1152ZM1152 1152V1151H1056V1152V1153H1152V1152Z" fill="#272932" mask="url(#path-466-inside-232_12_12)"/>
<mask id="path-468-inside-233_12_12" fill="white">
<path d="M1152 1056H1248V1152H1152V1056Z"/>
</mask>
<path d="M1248 1152V1153H1249V1152H1248ZM1248 1056H1247V1152H1248H1249V1056H1248ZM1248 1152V1151H1152V1152V1153H1248V1152Z" fill="#272932" mask="url(#path-468-inside-233_12_12)"/>
<mask id="path-470-inside-234_12_12" fill="white">
<path d="M1248 1056H1344V1152H1248V1056Z"/>
</mask>
<path d="M1344 1152V1153H1345V1152H1344ZM1344 1056H1343V1152H1344H1345V1056H1344ZM1344 1152V1151H1248V1152V1153H1344V1152Z" fill="#272932" mask="url(#path-470-inside-234_12_12)"/>
<mask id="path-472-inside-235_12_12" fill="white">
<path d="M1344 1056H1440V1152H1344V1056Z"/>
</mask>
<path d="M1344 1056H1440V1152H1344V1056Z" fill="#1A1D22"/>
<path d="M1440 1152V1153H1441V1152H1440ZM1440 1056H1439V1152H1440H1441V1056H1440ZM1440 1152V1151H1344V1152V1153H1440V1152Z" fill="#272932" mask="url(#path-472-inside-235_12_12)"/>
<mask id="path-474-inside-236_12_12" fill="white">
<path d="M1440 1056H1536V1152H1440V1056Z"/>
</mask>
<path d="M1536 1152V1153H1537V1152H1536ZM1536 1056H1535V1152H1536H1537V1056H1536ZM1536 1152V1151H1440V1152V1153H1536V1152Z" fill="#272932" mask="url(#path-474-inside-236_12_12)"/>
<mask id="path-476-inside-237_12_12" fill="white">
<path d="M1536 1056H1632V1152H1536V1056Z"/>
</mask>
<path d="M1632 1152V1153H1633V1152H1632ZM1632 1056H1631V1152H1632H1633V1056H1632ZM1632 1152V1151H1536V1152V1153H1632V1152Z" fill="#272932" mask="url(#path-476-inside-237_12_12)"/>
<mask id="path-478-inside-238_12_12" fill="white">
<path d="M1632 1056H1728V1152H1632V1056Z"/>
</mask>
<path d="M1728 1152V1153H1729V1152H1728ZM1728 1056H1727V1152H1728H1729V1056H1728ZM1728 1152V1151H1632V1152V1153H1728V1152Z" fill="#272932" mask="url(#path-478-inside-238_12_12)"/>
<mask id="path-480-inside-239_12_12" fill="white">
<path d="M1728 1056H1824V1152H1728V1056Z"/>
</mask>
<path d="M1824 1152V1153H1825V1152H1824ZM1824 1056H1823V1152H1824H1825V1056H1824ZM1824 1152V1151H1728V1152V1153H1824V1152Z" fill="#272932" mask="url(#path-480-inside-239_12_12)"/>
<mask id="path-482-inside-240_12_12" fill="white">
<path d="M1824 1056H1920V1152H1824V1056Z"/>
</mask>
<path d="M1920 1152V1153H1921V1152H1920ZM1920 1056H1919V1152H1920H1921V1056H1920ZM1920 1152V1151H1824V1152V1153H1920V1152Z" fill="#272932" mask="url(#path-482-inside-240_12_12)"/>
<mask id="path-484-inside-241_12_12" fill="white">
<path d="M0 1152H96V1248H0V1152Z"/>
</mask>
<path d="M96 1248V1249H97V1248H96ZM96 1152H95V1248H96H97V1152H96ZM96 1248V1247H0V1248V1249H96V1248Z" fill="#272932" mask="url(#path-484-inside-241_12_12)"/>
<mask id="path-486-inside-242_12_12" fill="white">
<path d="M96 1152H192V1248H96V1152Z"/>
</mask>
<path d="M192 1248V1249H193V1248H192ZM192 1152H191V1248H192H193V1152H192ZM192 1248V1247H96V1248V1249H192V1248Z" fill="#272932" mask="url(#path-486-inside-242_12_12)"/>
<mask id="path-488-inside-243_12_12" fill="white">
<path d="M192 1152H288V1248H192V1152Z"/>
</mask>
<path d="M288 1248V1249H289V1248H288ZM288 1152H287V1248H288H289V1152H288ZM288 1248V1247H192V1248V1249H288V1248Z" fill="#272932" mask="url(#path-488-inside-243_12_12)"/>
<mask id="path-490-inside-244_12_12" fill="white">
<path d="M288 1152H384V1248H288V1152Z"/>
</mask>
<path d="M384 1248V1249H385V1248H384ZM384 1152H383V1248H384H385V1152H384ZM384 1248V1247H288V1248V1249H384V1248Z" fill="#272932" mask="url(#path-490-inside-244_12_12)"/>
<mask id="path-492-inside-245_12_12" fill="white">
<path d="M384 1152H480V1248H384V1152Z"/>
</mask>
<path d="M480 1248V1249H481V1248H480ZM480 1152H479V1248H480H481V1152H480ZM480 1248V1247H384V1248V1249H480V1248Z" fill="#272932" mask="url(#path-492-inside-245_12_12)"/>
<mask id="path-494-inside-246_12_12" fill="white">
<path d="M480 1152H576V1248H480V1152Z"/>
</mask>
<path d="M576 1248V1249H577V1248H576ZM576 1152H575V1248H576H577V1152H576ZM576 1248V1247H480V1248V1249H576V1248Z" fill="#272932" mask="url(#path-494-inside-246_12_12)"/>
<mask id="path-496-inside-247_12_12" fill="white">
<path d="M576 1152H672V1248H576V1152Z"/>
</mask>
<path d="M672 1248V1249H673V1248H672ZM672 1152H671V1248H672H673V1152H672ZM672 1248V1247H576V1248V1249H672V1248Z" fill="#272932" mask="url(#path-496-inside-247_12_12)"/>
<mask id="path-498-inside-248_12_12" fill="white">
<path d="M672 1152H768V1248H672V1152Z"/>
</mask>
<path d="M768 1248V1249H769V1248H768ZM768 1152H767V1248H768H769V1152H768ZM768 1248V1247H672V1248V1249H768V1248Z" fill="#272932" mask="url(#path-498-inside-248_12_12)"/>
<mask id="path-500-inside-249_12_12" fill="white">
<path d="M768 1152H864V1248H768V1152Z"/>
</mask>
<path d="M768 1152H864V1248H768V1152Z" fill="#1A1D22"/>
<path d="M864 1248V1249H865V1248H864ZM864 1152H863V1248H864H865V1152H864ZM864 1248V1247H768V1248V1249H864V1248Z" fill="#272932" mask="url(#path-500-inside-249_12_12)"/>
<mask id="path-502-inside-250_12_12" fill="white">
<path d="M864 1152H960V1248H864V1152Z"/>
</mask>
<path d="M960 1248V1249H961V1248H960ZM960 1152H959V1248H960H961V1152H960ZM960 1248V1247H864V1248V1249H960V1248Z" fill="#272932" mask="url(#path-502-inside-250_12_12)"/>
<mask id="path-504-inside-251_12_12" fill="white">
<path d="M960 1152H1056V1248H960V1152Z"/>
</mask>
<path d="M1056 1248V1249H1057V1248H1056ZM1056 1152H1055V1248H1056H1057V1152H1056ZM1056 1248V1247H960V1248V1249H1056V1248Z" fill="#272932" mask="url(#path-504-inside-251_12_12)"/>
<mask id="path-506-inside-252_12_12" fill="white">
<path d="M1056 1152H1152V1248H1056V1152Z"/>
</mask>
<path d="M1152 1248V1249H1153V1248H1152ZM1152 1152H1151V1248H1152H1153V1152H1152ZM1152 1248V1247H1056V1248V1249H1152V1248Z" fill="#272932" mask="url(#path-506-inside-252_12_12)"/>
<mask id="path-508-inside-253_12_12" fill="white">
<path d="M1152 1152H1248V1248H1152V1152Z"/>
</mask>
<path d="M1248 1248V1249H1249V1248H1248ZM1248 1152H1247V1248H1248H1249V1152H1248ZM1248 1248V1247H1152V1248V1249H1248V1248Z" fill="#272932" mask="url(#path-508-inside-253_12_12)"/>
<mask id="path-510-inside-254_12_12" fill="white">
<path d="M1248 1152H1344V1248H1248V1152Z"/>
</mask>
<path d="M1344 1248V1249H1345V1248H1344ZM1344 1152H1343V1248H1344H1345V1152H1344ZM1344 1248V1247H1248V1248V1249H1344V1248Z" fill="#272932" mask="url(#path-510-inside-254_12_12)"/>
<mask id="path-512-inside-255_12_12" fill="white">
<path d="M1344 1152H1440V1248H1344V1152Z"/>
</mask>
<path d="M1440 1248V1249H1441V1248H1440ZM1440 1152H1439V1248H1440H1441V1152H1440ZM1440 1248V1247H1344V1248V1249H1440V1248Z" fill="#272932" mask="url(#path-512-inside-255_12_12)"/>
<mask id="path-514-inside-256_12_12" fill="white">
<path d="M1440 1152H1536V1248H1440V1152Z"/>
</mask>
<path d="M1536 1248V1249H1537V1248H1536ZM1536 1152H1535V1248H1536H1537V1152H1536ZM1536 1248V1247H1440V1248V1249H1536V1248Z" fill="#272932" mask="url(#path-514-inside-256_12_12)"/>
<mask id="path-516-inside-257_12_12" fill="white">
<path d="M1536 1152H1632V1248H1536V1152Z"/>
</mask>
<path d="M1632 1248V1249H1633V1248H1632ZM1632 1152H1631V1248H1632H1633V1152H1632ZM1632 1248V1247H1536V1248V1249H1632V1248Z" fill="#272932" mask="url(#path-516-inside-257_12_12)"/>
<mask id="path-518-inside-258_12_12" fill="white">
<path d="M1632 1152H1728V1248H1632V1152Z"/>
</mask>
<path d="M1728 1248V1249H1729V1248H1728ZM1728 1152H1727V1248H1728H1729V1152H1728ZM1728 1248V1247H1632V1248V1249H1728V1248Z" fill="#272932" mask="url(#path-518-inside-258_12_12)"/>
<mask id="path-520-inside-259_12_12" fill="white">
<path d="M1728 1152H1824V1248H1728V1152Z"/>
</mask>
<path d="M1728 1152H1824V1248H1728V1152Z" fill="#1A1D22"/>
<path d="M1824 1248V1249H1825V1248H1824ZM1824 1152H1823V1248H1824H1825V1152H1824ZM1824 1248V1247H1728V1248V1249H1824V1248Z" fill="#272932" mask="url(#path-520-inside-259_12_12)"/>
<mask id="path-522-inside-260_12_12" fill="white">
<path d="M1824 1152H1920V1248H1824V1152Z"/>
</mask>
<path d="M1920 1248V1249H1921V1248H1920ZM1920 1152H1919V1248H1920H1921V1152H1920ZM1920 1248V1247H1824V1248V1249H1920V1248Z" fill="#272932" mask="url(#path-522-inside-260_12_12)"/>
<mask id="path-524-inside-261_12_12" fill="white">
<path d="M0 1248H96V1344H0V1248Z"/>
</mask>
<path d="M96 1344V1345H97V1344H96ZM96 1248H95V1344H96H97V1248H96ZM96 1344V1343H0V1344V1345H96V1344Z" fill="#272932" mask="url(#path-524-inside-261_12_12)"/>
<mask id="path-526-inside-262_12_12" fill="white">
<path d="M96 1248H192V1344H96V1248Z"/>
</mask>
<path d="M192 1344V1345H193V1344H192ZM192 1248H191V1344H192H193V1248H192ZM192 1344V1343H96V1344V1345H192V1344Z" fill="#272932" mask="url(#path-526-inside-262_12_12)"/>
<mask id="path-528-inside-263_12_12" fill="white">
<path d="M192 1248H288V1344H192V1248Z"/>
</mask>
<path d="M288 1344V1345H289V1344H288ZM288 1248H287V1344H288H289V1248H288ZM288 1344V1343H192V1344V1345H288V1344Z" fill="#272932" mask="url(#path-528-inside-263_12_12)"/>
<mask id="path-530-inside-264_12_12" fill="white">
<path d="M288 1248H384V1344H288V1248Z"/>
</mask>
<path d="M384 1344V1345H385V1344H384ZM384 1248H383V1344H384H385V1248H384ZM384 1344V1343H288V1344V1345H384V1344Z" fill="#272932" mask="url(#path-530-inside-264_12_12)"/>
<mask id="path-532-inside-265_12_12" fill="white">
<path d="M384 1248H480V1344H384V1248Z"/>
</mask>
<path d="M480 1344V1345H481V1344H480ZM480 1248H479V1344H480H481V1248H480ZM480 1344V1343H384V1344V1345H480V1344Z" fill="#272932" mask="url(#path-532-inside-265_12_12)"/>
<mask id="path-534-inside-266_12_12" fill="white">
<path d="M480 1248H576V1344H480V1248Z"/>
</mask>
<path d="M480 1248H576V1344H480V1248Z" fill="#1A1D22"/>
<path d="M576 1344V1345H577V1344H576ZM576 1248H575V1344H576H577V1248H576ZM576 1344V1343H480V1344V1345H576V1344Z" fill="#272932" mask="url(#path-534-inside-266_12_12)"/>
<mask id="path-536-inside-267_12_12" fill="white">
<path d="M576 1248H672V1344H576V1248Z"/>
</mask>
<path d="M672 1344V1345H673V1344H672ZM672 1248H671V1344H672H673V1248H672ZM672 1344V1343H576V1344V1345H672V1344Z" fill="#272932" mask="url(#path-536-inside-267_12_12)"/>
<mask id="path-538-inside-268_12_12" fill="white">
<path d="M672 1248H768V1344H672V1248Z"/>
</mask>
<path d="M768 1344V1345H769V1344H768ZM768 1248H767V1344H768H769V1248H768ZM768 1344V1343H672V1344V1345H768V1344Z" fill="#272932" mask="url(#path-538-inside-268_12_12)"/>
<mask id="path-540-inside-269_12_12" fill="white">
<path d="M768 1248H864V1344H768V1248Z"/>
</mask>
<path d="M864 1344V1345H865V1344H864ZM864 1248H863V1344H864H865V1248H864ZM864 1344V1343H768V1344V1345H864V1344Z" fill="#272932" mask="url(#path-540-inside-269_12_12)"/>
<mask id="path-542-inside-270_12_12" fill="white">
<path d="M864 1248H960V1344H864V1248Z"/>
</mask>
<path d="M960 1344V1345H961V1344H960ZM960 1248H959V1344H960H961V1248H960ZM960 1344V1343H864V1344V1345H960V1344Z" fill="#272932" mask="url(#path-542-inside-270_12_12)"/>
<mask id="path-544-inside-271_12_12" fill="white">
<path d="M960 1248H1056V1344H960V1248Z"/>
</mask>
<path d="M1056 1344V1345H1057V1344H1056ZM1056 1248H1055V1344H1056H1057V1248H1056ZM1056 1344V1343H960V1344V1345H1056V1344Z" fill="#272932" mask="url(#path-544-inside-271_12_12)"/>
<mask id="path-546-inside-272_12_12" fill="white">
<path d="M1056 1248H1152V1344H1056V1248Z"/>
</mask>
<path d="M1056 1248H1152V1344H1056V1248Z" fill="#1A1D22"/>
<path d="M1152 1344V1345H1153V1344H1152ZM1152 1248H1151V1344H1152H1153V1248H1152ZM1152 1344V1343H1056V1344V1345H1152V1344Z" fill="#272932" mask="url(#path-546-inside-272_12_12)"/>
<mask id="path-548-inside-273_12_12" fill="white">
<path d="M1152 1248H1248V1344H1152V1248Z"/>
</mask>
<path d="M1248 1344V1345H1249V1344H1248ZM1248 1248H1247V1344H1248H1249V1248H1248ZM1248 1344V1343H1152V1344V1345H1248V1344Z" fill="#272932" mask="url(#path-548-inside-273_12_12)"/>
<mask id="path-550-inside-274_12_12" fill="white">
<path d="M1248 1248H1344V1344H1248V1248Z"/>
</mask>
<path d="M1344 1344V1345H1345V1344H1344ZM1344 1248H1343V1344H1344H1345V1248H1344ZM1344 1344V1343H1248V1344V1345H1344V1344Z" fill="#272932" mask="url(#path-550-inside-274_12_12)"/>
<mask id="path-552-inside-275_12_12" fill="white">
<path d="M1344 1248H1440V1344H1344V1248Z"/>
</mask>
<path d="M1440 1344V1345H1441V1344H1440ZM1440 1248H1439V1344H1440H1441V1248H1440ZM1440 1344V1343H1344V1344V1345H1440V1344Z" fill="#272932" mask="url(#path-552-inside-275_12_12)"/>
<mask id="path-554-inside-276_12_12" fill="white">
<path d="M1440 1248H1536V1344H1440V1248Z"/>
</mask>
<path d="M1536 1344V1345H1537V1344H1536ZM1536 1248H1535V1344H1536H1537V1248H1536ZM1536 1344V1343H1440V1344V1345H1536V1344Z" fill="#272932" mask="url(#path-554-inside-276_12_12)"/>
<mask id="path-556-inside-277_12_12" fill="white">
<path d="M1536 1248H1632V1344H1536V1248Z"/>
</mask>
<path d="M1632 1344V1345H1633V1344H1632ZM1632 1248H1631V1344H1632H1633V1248H1632ZM1632 1344V1343H1536V1344V1345H1632V1344Z" fill="#272932" mask="url(#path-556-inside-277_12_12)"/>
<mask id="path-558-inside-278_12_12" fill="white">
<path d="M1632 1248H1728V1344H1632V1248Z"/>
</mask>
<path d="M1728 1344V1345H1729V1344H1728ZM1728 1248H1727V1344H1728H1729V1248H1728ZM1728 1344V1343H1632V1344V1345H1728V1344Z" fill="#272932" mask="url(#path-558-inside-278_12_12)"/>
<mask id="path-560-inside-279_12_12" fill="white">
<path d="M1728 1248H1824V1344H1728V1248Z"/>
</mask>
<path d="M1824 1344V1345H1825V1344H1824ZM1824 1248H1823V1344H1824H1825V1248H1824ZM1824 1344V1343H1728V1344V1345H1824V1344Z" fill="#272932" mask="url(#path-560-inside-279_12_12)"/>
<mask id="path-562-inside-280_12_12" fill="white">
<path d="M1824 1248H1920V1344H1824V1248Z"/>
</mask>
<path d="M1920 1344V1345H1921V1344H1920ZM1920 1248H1919V1344H1920H1921V1248H1920ZM1920 1344V1343H1824V1344V1345H1920V1344Z" fill="#272932" mask="url(#path-562-inside-280_12_12)"/>
<mask id="path-564-inside-281_12_12" fill="white">
<path d="M0 1344H96V1440H0V1344Z"/>
</mask>
<path d="M96 1440V1441H97V1440H96ZM96 1344H95V1440H96H97V1344H96ZM96 1440V1439H0V1440V1441H96V1440Z" fill="#272932" mask="url(#path-564-inside-281_12_12)"/>
<mask id="path-566-inside-282_12_12" fill="white">
<path d="M96 1344H192V1440H96V1344Z"/>
</mask>
<path d="M192 1440V1441H193V1440H192ZM192 1344H191V1440H192H193V1344H192ZM192 1440V1439H96V1440V1441H192V1440Z" fill="#272932" mask="url(#path-566-inside-282_12_12)"/>
<mask id="path-568-inside-283_12_12" fill="white">
<path d="M192 1344H288V1440H192V1344Z"/>
</mask>
<path d="M288 1440V1441H289V1440H288ZM288 1344H287V1440H288H289V1344H288ZM288 1440V1439H192V1440V1441H288V1440Z" fill="#272932" mask="url(#path-568-inside-283_12_12)"/>
<mask id="path-570-inside-284_12_12" fill="white">
<path d="M288 1344H384V1440H288V1344Z"/>
</mask>
<path d="M288 1344H384V1440H288V1344Z" fill="#1A1D22"/>
<path d="M384 1440V1441H385V1440H384ZM384 1344H383V1440H384H385V1344H384ZM384 1440V1439H288V1440V1441H384V1440Z" fill="#272932" mask="url(#path-570-inside-284_12_12)"/>
<mask id="path-572-inside-285_12_12" fill="white">
<path d="M384 1344H480V1440H384V1344Z"/>
</mask>
<path d="M480 1440V1441H481V1440H480ZM480 1344H479V1440H480H481V1344H480ZM480 1440V1439H384V1440V1441H480V1440Z" fill="#272932" mask="url(#path-572-inside-285_12_12)"/>
<mask id="path-574-inside-286_12_12" fill="white">
<path d="M480 1344H576V1440H480V1344Z"/>
</mask>
<path d="M576 1440V1441H577V1440H576ZM576 1344H575V1440H576H577V1344H576ZM576 1440V1439H480V1440V1441H576V1440Z" fill="#272932" mask="url(#path-574-inside-286_12_12)"/>
<mask id="path-576-inside-287_12_12" fill="white">
<path d="M576 1344H672V1440H576V1344Z"/>
</mask>
<path d="M672 1440V1441H673V1440H672ZM672 1344H671V1440H672H673V1344H672ZM672 1440V1439H576V1440V1441H672V1440Z" fill="#272932" mask="url(#path-576-inside-287_12_12)"/>
<mask id="path-578-inside-288_12_12" fill="white">
<path d="M672 1344H768V1440H672V1344Z"/>
</mask>
<path d="M768 1440V1441H769V1440H768ZM768 1344H767V1440H768H769V1344H768ZM768 1440V1439H672V1440V1441H768V1440Z" fill="#272932" mask="url(#path-578-inside-288_12_12)"/>
<mask id="path-580-inside-289_12_12" fill="white">
<path d="M768 1344H864V1440H768V1344Z"/>
</mask>
<path d="M864 1440V1441H865V1440H864ZM864 1344H863V1440H864H865V1344H864ZM864 1440V1439H768V1440V1441H864V1440Z" fill="#272932" mask="url(#path-580-inside-289_12_12)"/>
<mask id="path-582-inside-290_12_12" fill="white">
<path d="M864 1344H960V1440H864V1344Z"/>
</mask>
<path d="M960 1440V1441H961V1440H960ZM960 1344H959V1440H960H961V1344H960ZM960 1440V1439H864V1440V1441H960V1440Z" fill="#272932" mask="url(#path-582-inside-290_12_12)"/>
<mask id="path-584-inside-291_12_12" fill="white">
<path d="M960 1344H1056V1440H960V1344Z"/>
</mask>
<path d="M1056 1440V1441H1057V1440H1056ZM1056 1344H1055V1440H1056H1057V1344H1056ZM1056 1440V1439H960V1440V1441H1056V1440Z" fill="#272932" mask="url(#path-584-inside-291_12_12)"/>
<mask id="path-586-inside-292_12_12" fill="white">
<path d="M1056 1344H1152V1440H1056V1344Z"/>
</mask>
<path d="M1152 1440V1441H1153V1440H1152ZM1152 1344H1151V1440H1152H1153V1344H1152ZM1152 1440V1439H1056V1440V1441H1152V1440Z" fill="#272932" mask="url(#path-586-inside-292_12_12)"/>
<mask id="path-588-inside-293_12_12" fill="white">
<path d="M1152 1344H1248V1440H1152V1344Z"/>
</mask>
<path d="M1248 1440V1441H1249V1440H1248ZM1248 1344H1247V1440H1248H1249V1344H1248ZM1248 1440V1439H1152V1440V1441H1248V1440Z" fill="#272932" mask="url(#path-588-inside-293_12_12)"/>
<mask id="path-590-inside-294_12_12" fill="white">
<path d="M1248 1344H1344V1440H1248V1344Z"/>
</mask>
<path d="M1344 1440V1441H1345V1440H1344ZM1344 1344H1343V1440H1344H1345V1344H1344ZM1344 1440V1439H1248V1440V1441H1344V1440Z" fill="#272932" mask="url(#path-590-inside-294_12_12)"/>
<mask id="path-592-inside-295_12_12" fill="white">
<path d="M1344 1344H1440V1440H1344V1344Z"/>
</mask>
<path d="M1440 1440V1441H1441V1440H1440ZM1440 1344H1439V1440H1440H1441V1344H1440ZM1440 1440V1439H1344V1440V1441H1440V1440Z" fill="#272932" mask="url(#path-592-inside-295_12_12)"/>
<mask id="path-594-inside-296_12_12" fill="white">
<path d="M1440 1344H1536V1440H1440V1344Z"/>
</mask>
<path d="M1536 1440V1441H1537V1440H1536ZM1536 1344H1535V1440H1536H1537V1344H1536ZM1536 1440V1439H1440V1440V1441H1536V1440Z" fill="#272932" mask="url(#path-594-inside-296_12_12)"/>
<mask id="path-596-inside-297_12_12" fill="white">
<path d="M1536 1344H1632V1440H1536V1344Z"/>
</mask>
<path d="M1536 1344H1632V1440H1536V1344Z" fill="#1A1D22"/>
<path d="M1632 1440V1441H1633V1440H1632ZM1632 1344H1631V1440H1632H1633V1344H1632ZM1632 1440V1439H1536V1440V1441H1632V1440Z" fill="#272932" mask="url(#path-596-inside-297_12_12)"/>
<mask id="path-598-inside-298_12_12" fill="white">
<path d="M1632 1344H1728V1440H1632V1344Z"/>
</mask>
<path d="M1728 1440V1441H1729V1440H1728ZM1728 1344H1727V1440H1728H1729V1344H1728ZM1728 1440V1439H1632V1440V1441H1728V1440Z" fill="#272932" mask="url(#path-598-inside-298_12_12)"/>
<mask id="path-600-inside-299_12_12" fill="white">
<path d="M1728 1344H1824V1440H1728V1344Z"/>
</mask>
<path d="M1824 1440V1441H1825V1440H1824ZM1824 1344H1823V1440H1824H1825V1344H1824ZM1824 1440V1439H1728V1440V1441H1824V1440Z" fill="#272932" mask="url(#path-600-inside-299_12_12)"/>
<mask id="path-602-inside-300_12_12" fill="white">
<path d="M1824 1344H1920V1440H1824V1344Z"/>
</mask>
<path d="M1920 1440V1441H1921V1440H1920ZM1920 1344H1919V1440H1920H1921V1344H1920ZM1920 1440V1439H1824V1440V1441H1920V1440Z" fill="#272932" mask="url(#path-602-inside-300_12_12)"/>
</g>
<rect x="0.5" y="0.5" width="1919" height="1439" stroke="#272932"/>
</g>
</g>
<defs>
<radialGradient id="paint0_radial_12_12" cx="0" cy="0" r="1" gradientUnits="userSpaceOnUse" gradientTransform="translate(720 -0.000171661) rotate(90) scale(1440 751.588)">
<stop/>
<stop offset="0.953125" stop-opacity="0"/>
</radialGradient>
<clipPath id="clip0_12_12">
<rect width="1920" height="1440" fill="white"/>
</clipPath>
<clipPath id="clip1_12_12">
<rect width="1920" height="1440" fill="white"/>
</clipPath>
<clipPath id="clip2_12_12">
<path d="M0 1056H96V1152H0V1056Z" fill="white"/>
</clipPath>
</defs>
</svg>
