<svg width="103" height="30" viewBox="0 0 103 30" fill="none" xmlns="http://www.w3.org/2000/svg">
<path d="M97.2782 23.0826C96.9582 23.104 96.6596 23.1146 96.3822 23.1146C96.1262 23.1146 95.9236 23.072 95.7742 22.9866C95.3902 22.6666 95.1342 22.4106 95.0062 22.2186C94.8996 22.0266 94.8462 21.8133 94.8462 21.5786C94.8676 21.28 94.8782 20.9813 94.8782 20.6826C94.8782 20.3626 94.8782 20.1173 94.8782 19.9466C94.7929 19.8613 94.6222 19.9573 94.3662 20.2346C94.1102 20.512 93.8116 20.7786 93.4702 21.0346C92.8089 21.7813 92.2222 22.3253 91.7102 22.6666C91.1982 22.9866 90.7289 23.168 90.3022 23.2106C89.8756 23.2746 89.4489 23.2853 89.0222 23.2426C88.6382 23.2 88.2969 23.008 87.9982 22.6666C87.7209 22.3253 87.5076 21.9093 87.3582 21.4186C87.2302 20.928 87.1876 20.448 87.2302 19.9786C87.3369 19.104 87.5289 18.3146 87.8062 17.6106C88.0836 16.8853 88.4996 16.128 89.0542 15.3386C89.3102 14.9973 89.6516 14.624 90.0782 14.2186C90.5262 13.8133 91.0062 13.44 91.5182 13.0986C92.0302 12.736 92.4889 12.48 92.8942 12.3306C93.5129 12.0533 94.0249 11.9253 94.4302 11.9466C94.8569 11.968 95.2729 12.032 95.6782 12.1386C95.9769 12.288 96.2116 12.3626 96.3822 12.3626C96.5742 12.3626 96.7129 12.256 96.7982 12.0426C96.9262 11.872 97.0222 11.6586 97.0862 11.4026C97.1502 11.1466 97.2569 10.9013 97.4062 10.6666L98.1102 8.58664C98.3449 8.01064 98.6222 7.3493 98.9422 6.60264C99.2622 5.85597 99.6249 5.02397 100.03 4.10664C100.521 3.27464 100.937 2.8373 101.278 2.79464C101.641 2.75197 102.014 2.94397 102.398 3.37064C102.654 3.62664 102.793 3.94664 102.814 4.33064C102.857 4.6933 102.761 5.11997 102.526 5.61064C102.377 5.8453 102.217 6.14397 102.046 6.50664C101.876 6.84797 101.673 7.2533 101.438 7.72264C101.204 8.2773 100.958 8.83197 100.702 9.38664C100.468 9.9413 100.222 10.5493 99.9662 11.2106C99.8809 11.552 99.7636 11.9466 99.6142 12.3946C99.4862 12.8426 99.3796 13.248 99.2942 13.6106C99.2302 13.952 99.1556 14.272 99.0702 14.5706C99.0062 14.848 98.9316 14.9866 98.8462 14.9866C98.6756 15.136 98.5156 15.456 98.3662 15.9466C98.2169 16.416 98.0889 16.9173 97.9822 17.4506C97.8969 17.984 97.8222 18.4213 97.7582 18.7626C97.7156 19.0186 97.6836 19.3813 97.6622 19.8506C97.6409 20.2986 97.6302 20.736 97.6302 21.1626C97.6302 21.568 97.6302 21.8453 97.6302 21.9946C97.6302 22.4 97.5982 22.688 97.5342 22.8586C97.4916 23.008 97.4062 23.0826 97.2782 23.0826ZM90.0462 20.5546C90.5369 20.5546 90.9956 20.352 91.4222 19.9466C91.8702 19.52 92.3609 19.072 92.8942 18.6026C93.2142 18.2826 93.5449 17.9306 93.8862 17.5466C94.2276 17.1413 94.5369 16.7466 94.8142 16.3626C95.1129 15.9786 95.3476 15.648 95.5182 15.3706C95.6889 15.0933 95.7742 14.912 95.7742 14.8266C95.7742 14.72 95.6889 14.624 95.5182 14.5386C95.3689 14.4533 95.1876 14.3893 94.9742 14.3466C94.7609 14.2826 94.5689 14.272 94.3982 14.3146C93.8862 14.464 93.4702 14.688 93.1502 14.9866C92.8516 15.2853 92.4142 15.7546 91.8382 16.3946C91.2622 17.0986 90.8036 17.7706 90.4622 18.4106C90.1209 19.0506 89.9076 19.5733 89.8222 19.9786C89.7582 20.3626 89.8329 20.5546 90.0462 20.5546Z" fill="white"/>
<path d="M78.4905 21.9947C78.0852 21.632 77.7332 21.2587 77.4345 20.8747C77.1359 20.4693 76.9332 19.8507 76.8265 19.0187C76.7839 18.6347 76.8265 18.1013 76.9545 17.4187C77.0825 16.736 77.2745 16.0213 77.5305 15.2747C77.7865 14.5067 78.0639 13.8027 78.3625 13.1627C78.6612 12.5227 78.9599 12.0533 79.2585 11.7547C79.5145 11.4347 79.8345 11.1787 80.2185 10.9867C80.6239 10.7947 81.0399 10.7947 81.4665 10.9867C81.7012 11.264 81.8185 11.648 81.8185 12.1387C81.8399 12.608 81.7225 13.0453 81.4665 13.4507C81.0399 14.0267 80.6665 14.752 80.3465 15.6267C80.0479 16.48 79.8452 17.248 79.7385 17.9307C79.5892 18.4213 79.5252 18.8053 79.5465 19.0827C79.5679 19.3387 79.7172 19.4987 79.9945 19.5627C80.3999 19.6693 80.8159 19.552 81.2425 19.2107C81.6905 18.8693 82.1172 18.368 82.5225 17.7067C82.9492 17.0453 83.3225 16.288 83.6425 15.4347C83.7705 15.136 83.8665 14.784 83.9305 14.3787C84.0159 13.9733 84.1012 13.6747 84.1865 13.4827C84.2932 13.056 84.4745 12.7253 84.7305 12.4907C85.0079 12.2347 85.2959 12.0747 85.5945 12.0107C85.8932 11.9467 86.1172 11.9787 86.2666 12.1067C86.4586 12.192 86.6612 12.3307 86.8745 12.5227C87.0879 12.7147 87.1732 13.056 87.1305 13.5467C87.1305 14.336 86.9599 15.008 86.6185 15.5627C86.2772 16.1173 85.9892 16.704 85.7545 17.3227C85.5625 17.7707 85.2532 18.2933 84.8265 18.8907C84.3999 19.488 83.9412 20.032 83.4505 20.5227C82.9812 21.0133 82.5439 21.344 82.1385 21.5147C81.5412 21.8987 80.9332 22.1333 80.3145 22.2187C79.6959 22.2827 79.0879 22.208 78.4905 21.9947Z" fill="white"/>
<path d="M72.1828 23.3066C72.0334 23.392 71.8308 23.36 71.5748 23.2106C71.3401 23.0613 71.1054 22.8373 70.8708 22.5386C70.7214 22.2826 70.6041 22.0266 70.5188 21.7706C70.4548 21.4933 70.4228 21.088 70.4228 20.5546C70.4441 20.128 70.4441 19.84 70.4228 19.6906C70.4228 19.52 70.3268 19.5093 70.1348 19.6586C69.9641 19.7866 69.6121 20.1066 69.0788 20.6186C68.5454 21.152 68.0334 21.6106 67.5428 21.9946C67.0734 22.3573 66.6894 22.528 66.3908 22.5066C66.2414 22.5066 66.0388 22.4106 65.7828 22.2186C65.5268 22.0266 65.2814 21.792 65.0468 21.5146C64.8121 21.216 64.6415 20.9386 64.5348 20.6826C64.4068 20.1706 64.3961 19.5093 64.5028 18.6986C64.6308 17.888 64.8334 17.0453 65.1108 16.1706C65.3881 15.2746 65.6974 14.4426 66.0388 13.6746C66.4014 12.8853 66.7534 12.256 67.0948 11.7866C67.4574 11.296 67.7668 11.0613 68.0228 11.0826C68.3854 11.1253 68.6948 11.3066 68.9508 11.6266C69.2281 11.9253 69.4415 12.256 69.5908 12.6186C69.6761 12.768 69.7081 12.896 69.6868 13.0026C69.6868 13.1093 69.6014 13.2373 69.4308 13.3866C69.2388 13.6426 69.0041 14.016 68.7268 14.5066C68.4708 14.976 68.2041 15.488 67.9268 16.0426C67.6708 16.5973 67.4361 17.1306 67.2228 17.6426C67.0308 18.1333 66.8921 18.5386 66.8068 18.8586C66.7214 19.1786 66.7214 19.3386 66.8068 19.3386C67.1054 19.3386 67.3828 19.264 67.6388 19.1146C67.8948 18.944 68.2148 18.6773 68.5988 18.3146C69.0468 17.8666 69.4415 17.4186 69.7828 16.9706C70.1241 16.5013 70.4761 15.968 70.8388 15.3706C71.1161 14.944 71.4041 14.4746 71.7028 13.9626C72.0228 13.4506 72.2255 13.088 72.3108 12.8746C72.6095 12.32 72.8334 11.904 72.9828 11.6266C73.1321 11.3493 73.3134 11.1786 73.5268 11.1146C73.6334 11.1146 73.7828 11.1146 73.9748 11.1146C74.1668 11.1146 74.2628 11.1146 74.2628 11.1146C74.3908 11.136 74.5401 11.232 74.7108 11.4026C74.8814 11.488 75.0521 11.6053 75.2228 11.7546C75.4148 11.904 75.5108 12.032 75.5108 12.1386C75.4254 12.352 75.2868 12.672 75.0948 13.0986C74.9241 13.504 74.7961 13.8026 74.7108 13.9946C74.3054 14.912 73.9108 15.8186 73.5268 16.7146C73.1641 17.5893 72.8975 18.4853 72.7268 19.4026C72.6841 19.7013 72.6734 20.0533 72.6948 20.4586C72.7374 20.8426 72.8014 21.12 72.8868 21.2906C72.9508 21.4186 73.0254 21.568 73.1108 21.7386C73.2174 21.888 73.3348 22.016 73.4628 22.1226C73.6548 22.2506 73.6441 22.4106 73.4308 22.6026C73.2388 22.7946 72.9934 22.9653 72.6948 23.1146C72.4174 23.2426 72.2468 23.3066 72.1828 23.3066Z" fill="white"/>
<path d="M49.5893 24.1707C49.5893 24.2773 49.536 24.2773 49.4293 24.1707C49.3227 24.0853 49.152 23.9573 48.9173 23.7867C48.7253 23.5947 48.5013 23.3493 48.2453 23.0507C47.9893 22.752 47.872 22.4 47.8933 21.9947C48 21.504 48.192 20.7893 48.4693 19.8507C48.7467 18.8907 49.0773 17.888 49.4613 16.8427C49.504 16.4373 49.568 16.096 49.6533 15.8187C49.76 15.5413 49.8133 15.4027 49.8133 15.4027C49.8347 15.36 49.8773 15.296 49.9413 15.2107C50.0053 15.104 50.1013 15.0293 50.2293 14.9867C50.336 14.9013 50.3787 14.7413 50.3573 14.5067C50.336 14.2507 50.3147 14.0907 50.2933 14.0267C50.3787 13.5147 50.5707 12.8213 50.8693 11.9467C51.168 11.0507 51.52 10.112 51.9253 9.13068C52.3307 8.12801 52.7147 7.20001 53.0773 6.34668C53.184 6.15468 53.28 5.97335 53.3653 5.80268C53.4507 5.61068 53.4933 5.51468 53.4933 5.51468C53.4293 5.42935 53.3547 5.34401 53.2693 5.25868C53.184 5.17335 53.088 5.05601 52.9813 4.90668C52.8107 4.67201 52.6827 4.41601 52.5973 4.13868C52.5333 3.84001 52.608 3.57335 52.8213 3.33868C52.8853 3.23201 53.0027 3.09335 53.1733 2.92268C53.3653 2.75201 53.568 2.59201 53.7813 2.44268C54.272 2.16535 54.752 1.95201 55.2213 1.80268C55.712 1.63201 56.1493 1.60001 56.5333 1.70668C57.216 1.72801 57.728 1.78135 58.0693 1.86668C58.432 1.95201 58.72 2.06935 58.9333 2.21868C59.0613 2.30401 59.168 2.36801 59.2533 2.41068C59.36 2.45335 59.4987 2.47468 59.6693 2.47468C60.032 2.51735 60.4587 2.65601 60.9493 2.89068C61.44 3.10401 61.8773 3.32801 62.2613 3.56268C62.6453 3.79735 62.8693 3.95735 62.9333 4.04268C63.36 4.40535 63.7333 4.89601 64.0533 5.51468C64.3733 6.13335 64.5653 6.84801 64.6293 7.65868C64.6293 8.14935 64.608 8.58668 64.5653 8.97068C64.5227 9.33335 64.4267 9.69601 64.2773 10.0587C64.128 10.4 63.8827 10.8053 63.5413 11.2747C62.9013 12.2773 62.1013 13.2693 61.1413 14.2507C60.2027 15.232 59.008 16.128 57.5573 16.9387C57.5147 17.024 57.4613 17.12 57.3973 17.2267C57.3547 17.312 57.3333 17.3547 57.3333 17.3547C57.3333 17.5253 57.44 17.7493 57.6533 18.0267C57.888 18.304 58.176 18.6027 58.5173 18.9227C58.8587 19.2213 59.2107 19.52 59.5733 19.8187C59.9573 20.1173 60.2987 20.384 60.5973 20.6187C60.9173 20.832 61.152 20.9813 61.3013 21.0667C61.5787 20.9813 61.8027 20.9493 61.9733 20.9707C62.144 20.9707 62.272 21.0453 62.3573 21.1947C62.4427 21.344 62.496 21.6 62.5173 21.9627C62.496 22.24 62.4213 22.5067 62.2933 22.7627C62.1653 23.0187 62.0693 23.168 62.0053 23.2107C61.8347 23.3387 61.6747 23.488 61.5253 23.6587C61.3973 23.8293 61.2373 23.936 61.0453 23.9787C60.8533 24.0213 60.5867 23.9253 60.2453 23.6907C59.2853 23.392 58.4213 22.8267 57.6533 21.9947C56.9067 21.1627 56.0853 20.2667 55.1893 19.3067C54.9973 19.072 54.8373 18.912 54.7093 18.8267C54.5813 18.72 54.4427 18.6667 54.2933 18.6667C54.144 18.6667 53.92 18.6987 53.6213 18.7627C53.4507 18.784 53.28 18.7413 53.1093 18.6347C52.96 18.528 52.8 18.3893 52.6293 18.2187C52.5653 18.112 52.48 18.048 52.3733 18.0267C52.288 18.0053 52.2133 18.0587 52.1493 18.1867C52.1067 18.3147 52.0213 18.5387 51.8933 18.8587C51.7867 19.1573 51.6693 19.456 51.5413 19.7547C51.4347 20.0533 51.328 20.288 51.2213 20.4587C51.264 20.6507 51.2107 21.0667 51.0613 21.7067C50.912 22.3253 50.72 22.976 50.4853 23.6587C50.4213 23.8293 50.3253 23.9787 50.1973 24.1067C50.0693 24.256 49.9733 24.288 49.9093 24.2027C49.824 24.096 49.7493 24.0427 49.6853 24.0427C49.6427 24.0427 49.6107 24.0853 49.5893 24.1707ZM55.4453 14.9227C56.064 14.7307 56.672 14.4427 57.2693 14.0587C57.888 13.6533 58.464 13.1733 58.9973 12.6187C59.5307 12.064 59.968 11.4773 60.3093 10.8587C60.48 10.7307 60.64 10.528 60.7893 10.2507C60.9387 9.95201 61.0667 9.77068 61.1733 9.70668C61.3653 9.47201 61.4933 9.29068 61.5573 9.16268C61.6427 9.03468 61.632 8.87468 61.5253 8.68268C61.5253 8.51201 61.5467 8.35201 61.5893 8.20268C61.6533 8.03201 61.7067 7.87201 61.7493 7.72268C61.856 7.42401 61.856 7.15735 61.7493 6.92268C61.664 6.68801 61.3547 6.42135 60.8213 6.12268C60.6293 5.99468 60.4267 5.88801 60.2133 5.80268C60.0213 5.69601 59.808 5.60001 59.5733 5.51468C59.36 5.40801 59.1147 5.29068 58.8373 5.16268C58.496 5.16268 58.144 5.08801 57.7813 4.93868C57.44 4.76801 57.1733 4.69335 56.9813 4.71468C56.8747 4.73601 56.768 4.86401 56.6613 5.09868C56.576 5.31201 56.48 5.62135 56.3733 6.02668C56.288 6.36801 56.1813 6.67735 56.0533 6.95468C55.9467 7.21068 55.808 7.38135 55.6373 7.46668C55.616 7.55201 55.52 7.85068 55.3493 8.36268C55.1787 8.87468 54.976 9.48268 54.7413 10.1867C54.5067 10.8693 54.272 11.5627 54.0373 12.2667C53.8027 12.9493 53.6107 13.536 53.4613 14.0267C53.312 14.5173 53.2373 14.8053 53.2373 14.8907C53.2373 14.9333 53.3013 15.008 53.4293 15.1147C53.5787 15.2213 53.7067 15.2853 53.8133 15.3067C53.8133 15.3067 53.8347 15.2853 53.8773 15.2427C53.92 15.2 53.9627 15.1893 54.0053 15.2107L54.7093 15.5627L55.4453 14.9227Z" fill="white"/>
<path d="M29.365 29.7707C28.597 29.92 27.861 29.9413 27.157 29.8347C26.453 29.7493 25.8663 29.568 25.397 29.2907C24.9063 29.0133 24.6077 28.704 24.501 28.3627C24.373 27.872 24.437 27.5093 24.693 27.2747C24.949 27.04 25.2583 26.9013 25.621 26.8587C25.9623 26.816 26.1863 26.8587 26.293 26.9867C26.4637 27.0933 26.7303 27.2533 27.093 27.4667C27.477 27.68 27.9463 27.7333 28.501 27.6267C28.9917 27.52 29.429 27.2853 29.813 26.9227C30.197 26.56 30.5383 26.176 30.837 25.7707C31.0077 25.5147 31.2957 25.056 31.701 24.3947C32.1063 23.7333 32.5223 23.008 32.949 22.2187C33.397 21.408 33.7703 20.6613 34.069 19.9787C34.133 19.808 34.2077 19.6053 34.293 19.3707C34.3783 19.136 34.485 18.944 34.613 18.7947C34.741 18.5387 34.8477 18.304 34.933 18.0907C35.0397 17.856 35.1037 17.696 35.125 17.6107C35.1463 17.504 35.2423 17.2907 35.413 16.9707C35.5837 16.6507 35.7437 16.3307 35.893 16.0107C35.9997 15.6907 36.1597 15.2213 36.373 14.6027C36.5863 13.984 36.7997 13.4827 37.013 13.0987C37.269 12.608 37.4717 12.2133 37.621 11.9147C37.7917 11.5947 37.973 11.4027 38.165 11.3387C38.357 11.1893 38.5383 11.1147 38.709 11.1147C38.8797 11.1147 39.0823 11.1787 39.317 11.3067C39.573 11.5627 39.7757 11.8187 39.925 12.0747C40.0957 12.3093 40.1597 12.608 40.117 12.9707C40.0957 13.312 39.925 13.7813 39.605 14.3787C39.4343 14.8907 39.2423 15.36 39.029 15.7867C38.837 16.192 38.6877 16.4587 38.581 16.5867C38.4743 16.8427 38.3463 17.1307 38.197 17.4507C38.069 17.7493 37.9517 18.0267 37.845 18.2827C37.461 19.136 37.1303 19.8293 36.853 20.3627C36.5757 20.896 36.3303 21.3867 36.117 21.8347C35.9037 22.2827 35.6797 22.8053 35.445 23.4027C34.9543 24.192 34.4743 24.9387 34.005 25.6427C33.557 26.368 33.077 27.04 32.565 27.6587C32.3517 27.8507 32.0423 28.096 31.637 28.3947C31.253 28.7147 30.8477 29.0027 30.421 29.2587C30.0157 29.536 29.6637 29.7067 29.365 29.7707ZM33.365 22.5387C33.045 22.496 32.693 22.2827 32.309 21.8987C31.9463 21.5147 31.637 21.1093 31.381 20.6827C31.1463 20.256 31.0503 19.9573 31.093 19.7867C31.093 19.68 31.093 19.5947 31.093 19.5307C31.093 19.4667 31.093 19.4347 31.093 19.4347C30.965 19.4347 30.8583 19.2533 30.773 18.8907C30.709 18.5067 30.6557 18.0267 30.613 17.4507C30.5917 16.8747 30.581 16.2773 30.581 15.6587C30.6023 15.04 30.6343 14.4747 30.677 13.9627C30.7623 13.6 30.805 13.2053 30.805 12.7787C30.805 12.3307 30.8157 11.9787 30.837 11.7227C30.8157 11.3813 30.8797 11.104 31.029 10.8907C31.1997 10.6773 31.3277 10.5387 31.413 10.4747C32.2023 10.1333 32.7783 10.3147 33.141 11.0187C33.5037 11.7227 33.6317 12.8427 33.525 14.3787C33.4823 15.232 33.461 16.0533 33.461 16.8427C33.461 17.6107 33.5357 18.272 33.685 18.8267C33.8343 19.3813 34.0903 19.776 34.453 20.0107C34.6023 20.096 34.6557 20.2773 34.613 20.5547C34.5703 20.832 34.4743 21.1307 34.325 21.4507C34.1757 21.7493 34.005 22.016 33.813 22.2507C33.6423 22.464 33.493 22.56 33.365 22.5387Z" fill="white"/>
<path d="M25.3015 22.4746C24.6615 22.8373 23.9789 23.0506 23.2535 23.1146C22.5495 23.1573 21.8882 23.0613 21.2695 22.8266C20.6509 22.5706 20.1495 22.1973 19.7655 21.7066C19.5522 21.4293 19.3495 20.9919 19.1575 20.3946C18.9655 19.7759 18.9335 18.9439 19.0615 17.8986C19.1895 16.9173 19.4882 15.9253 19.9575 14.9226C20.4482 13.9199 21.0455 13.0346 21.7495 12.2666C22.4535 11.4986 23.2215 10.9759 24.0535 10.6986C24.3522 10.5919 24.6509 10.5173 24.9495 10.4746C25.2695 10.4106 25.6855 10.3999 26.1975 10.4426C26.6882 10.5066 27.1255 10.6346 27.5095 10.8266C27.8935 10.9973 28.1709 11.1893 28.3415 11.4026C28.6829 11.7439 28.9069 12.0746 29.0135 12.3946C29.1202 12.7146 29.1629 13.0239 29.1415 13.3226C29.0349 14.0053 28.7255 14.7413 28.2135 15.5306C27.7229 16.3199 27.0295 16.9066 26.1335 17.2906C25.7709 17.4399 25.3442 17.5359 24.8535 17.5786C24.3629 17.6213 23.6909 17.5573 22.8375 17.3866C22.3255 17.2799 21.9842 17.3333 21.8135 17.5466C21.6642 17.7599 21.6002 18.1759 21.6215 18.7946C21.6642 19.1786 21.7495 19.5199 21.8775 19.8186C22.0269 20.0959 22.2935 20.2879 22.6775 20.3946C23.1682 20.4799 23.5202 20.4906 23.7335 20.4266C23.9469 20.3413 24.2135 20.2239 24.5335 20.0746C24.7042 19.9679 24.8642 19.8506 25.0135 19.7226C25.1842 19.5946 25.3442 19.4666 25.4935 19.3386C25.6642 19.2106 25.8029 19.1146 25.9095 19.0506C26.0162 18.9653 26.1229 18.9119 26.2295 18.8906C26.3362 18.8693 26.4429 18.8586 26.5495 18.8586C26.7842 18.8799 27.0082 19.0079 27.2215 19.2426C27.4349 19.4773 27.5735 19.7013 27.6375 19.9146C27.6375 20.0853 27.5309 20.3306 27.3175 20.6506C27.1042 20.9493 26.8162 21.2693 26.4535 21.6106C26.1122 21.9306 25.7282 22.2186 25.3015 22.4746ZM24.8855 15.3386C25.0349 15.2746 25.2482 15.1253 25.5255 14.8906C25.8242 14.6559 26.0909 14.4106 26.3255 14.1546C26.5602 13.8773 26.6775 13.6639 26.6775 13.5146C26.6775 13.2799 26.5175 13.0773 26.1975 12.9066C25.8989 12.7359 25.5042 12.7039 25.0135 12.8106C24.8429 12.8533 24.6402 12.9706 24.4055 13.1626C24.1709 13.3546 23.9362 13.5786 23.7015 13.8346C23.4669 14.0693 23.2642 14.3039 23.0935 14.5386C22.9229 14.7519 22.8055 14.9226 22.7415 15.0506C22.8269 15.1573 22.9975 15.2426 23.2535 15.3066C23.5095 15.3706 23.7869 15.4026 24.0855 15.4026C24.4055 15.4026 24.6722 15.3813 24.8855 15.3386Z" fill="white"/>
<path d="M2.44655 26.0266C2.44655 26.0266 2.33988 25.984 2.12655 25.8986C1.91321 25.8346 1.67855 25.7706 1.42255 25.7066C1.18788 25.6426 1.00655 25.6106 0.878545 25.6106C0.537212 25.5253 0.291879 25.3333 0.142545 25.0346C-0.00678788 24.7573 -0.0387879 24.448 0.0465455 24.1066C0.131879 24.0213 0.195879 23.84 0.238546 23.5626C0.281212 23.2853 0.302546 23.0613 0.302546 22.8906C0.387879 22.72 0.441212 22.6026 0.462546 22.5386C0.483879 22.4533 0.537212 22.24 0.622545 21.8986C0.686546 21.536 0.793212 21.0346 0.942546 20.3946C1.11321 19.7333 1.29455 19.0293 1.48655 18.2826C1.69988 17.536 1.90255 16.8213 2.09455 16.1386C2.28655 15.456 2.45721 14.88 2.60655 14.4106C2.77721 13.9413 2.89455 13.6746 2.95855 13.6106C2.95855 13.6106 2.95855 13.5786 2.95855 13.5146C2.95855 13.4293 2.95855 13.344 2.95855 13.2586C2.95855 13.2586 2.96921 13.1626 2.99055 12.9706C3.03321 12.7573 3.13988 12.5226 3.31055 12.2666C3.39588 12.032 3.47055 11.776 3.53455 11.4986C3.59855 11.2213 3.63055 11.04 3.63055 10.9546C3.71588 10.848 3.83321 10.592 3.98255 10.1866C4.15321 9.75997 4.31321 9.34397 4.46255 8.93863C4.59055 8.5973 4.72921 8.23463 4.87855 7.85063C5.04921 7.46663 5.18788 7.13597 5.29455 6.85863C5.42255 6.5813 5.48655 6.44263 5.48655 6.44263C5.48655 6.3573 5.48655 6.31463 5.48655 6.31463C5.48655 6.2933 5.48655 6.28263 5.48655 6.28263C5.57188 6.1973 5.77455 5.77063 6.09455 5.00263C6.43588 4.2133 6.89455 3.19997 7.47055 1.96263C7.55588 1.79197 7.68388 1.5253 7.85455 1.16263C8.02521 0.778633 8.11055 0.543966 8.11055 0.458634C8.43055 0.138633 8.73988 0.0319661 9.03855 0.138633C9.35855 0.223966 9.63588 0.4053 9.87055 0.682633C10.1265 0.959967 10.3079 1.21597 10.4145 1.45063L10.7345 1.96263L9.55055 4.26663C9.20921 4.86397 8.91055 5.40797 8.65455 5.89863C8.41988 6.3893 8.30255 6.6773 8.30255 6.76263C8.30255 6.76263 8.24921 6.89063 8.14255 7.14663C8.05721 7.40263 7.95055 7.7333 7.82255 8.13863C7.69455 8.52263 7.56655 8.90663 7.43855 9.29063C7.20388 9.95197 6.97988 10.5066 6.76655 10.9546C6.55321 11.3813 6.44655 11.6373 6.44655 11.7226C6.44655 11.68 6.65988 11.648 7.08655 11.6266C7.53455 11.6053 8.08921 11.5946 8.75055 11.5946C9.41188 11.5946 10.0839 11.5946 10.7665 11.5946C11.4705 11.5733 12.0999 11.5626 12.6545 11.5626C13.2092 11.5413 13.5932 11.5093 13.8065 11.4666L15.4705 11.3066L16.3665 8.45863C16.5372 7.8613 16.7612 7.13597 17.0385 6.28263C17.3159 5.4293 17.5612 4.70397 17.7745 4.10663C18.1159 3.1253 18.4785 2.44263 18.8625 2.05863C19.2465 1.6533 19.5665 1.45063 19.8225 1.45063C19.8865 1.45063 20.0039 1.51463 20.1745 1.64263C20.3665 1.7493 20.5585 1.8773 20.7505 2.02663C20.9425 2.17597 21.0599 2.31463 21.1025 2.44263C21.3585 2.6773 21.4759 2.94397 21.4545 3.24263C21.4545 3.5413 21.2839 3.93597 20.9425 4.42663C20.6012 5.00263 20.3132 5.63197 20.0785 6.31463C19.8652 6.97597 19.6732 7.51997 19.5025 7.94663C19.5025 8.20263 19.4705 8.41597 19.4065 8.58663C19.3425 8.73597 19.2679 8.8533 19.1825 8.93863C19.1399 8.9813 19.0545 9.1413 18.9265 9.41863C18.7985 9.69597 18.6812 9.9733 18.5745 10.2506C18.4679 10.528 18.4145 10.6986 18.4145 10.7626C18.4145 10.912 18.3825 11.0933 18.3185 11.3066C18.2545 11.52 18.1799 11.6693 18.0945 11.7546C18.0519 11.8826 17.9559 12.2026 17.8065 12.7146C17.6572 13.2266 17.4865 13.8346 17.2945 14.5386C17.1025 15.2213 16.8999 15.8933 16.6865 16.5546C16.4732 17.1946 16.2812 17.728 16.1105 18.1546C16.1105 18.304 16.0572 18.496 15.9505 18.7306C15.8439 18.944 15.7905 19.136 15.7905 19.3066C15.7052 19.5626 15.5985 19.8826 15.4705 20.2666C15.3425 20.6506 15.2785 20.896 15.2785 21.0026C15.1719 21.4933 15.0545 22.0586 14.9265 22.6986C14.8199 23.3386 14.7239 23.904 14.6385 24.3946C14.5745 24.8853 14.5425 25.1626 14.5425 25.2266C13.9879 25.2906 13.5719 25.216 13.2945 25.0026C13.0172 24.7893 12.7612 24.64 12.5265 24.5546C12.1212 24.32 11.8759 24.0213 11.7905 23.6586C11.7265 23.3173 11.8119 22.9013 12.0465 22.4106C12.1532 22.24 12.2812 21.824 12.4305 21.1626C12.6012 20.48 12.7719 19.808 12.9425 19.1466C13.0705 18.8266 13.2092 18.4213 13.3585 17.9306C13.5079 17.44 13.6465 16.96 13.7745 16.4906C13.9239 16 14.0519 15.584 14.1585 15.2426C14.2652 14.9013 14.3399 14.7093 14.3825 14.6666C14.3825 14.5813 14.3825 14.5066 14.3825 14.4426C14.3825 14.3786 14.3825 14.3466 14.3825 14.3466C14.3399 14.304 14.1265 14.272 13.7425 14.2506C13.3585 14.208 12.8679 14.1973 12.2705 14.2186C11.6945 14.2186 11.0652 14.24 10.3825 14.2826C9.69988 14.304 9.04921 14.3573 8.43055 14.4426C8.19588 14.4426 7.85455 14.4426 7.40655 14.4426C6.97988 14.4426 6.68121 14.4426 6.51055 14.4426C6.27588 14.4426 6.07321 14.4426 5.90255 14.4426C5.75321 14.4426 5.67855 14.4426 5.67855 14.4426C5.63588 14.5066 5.55055 14.72 5.42255 15.0826C5.31588 15.4453 5.17721 15.8826 5.00655 16.3946C4.85721 16.9066 4.69721 17.4293 4.52655 17.9626C4.37721 18.496 4.23855 18.9866 4.11055 19.4346C4.00388 19.8613 3.92921 20.1706 3.88655 20.3626C3.80121 20.7466 3.68388 21.2266 3.53455 21.8026C3.40655 22.3786 3.25721 22.9653 3.08655 23.5626C2.93721 24.1813 2.79855 24.7146 2.67055 25.1626C2.56388 25.6106 2.48921 25.8986 2.44655 26.0266Z" fill="white"/>
</svg>
